<?xml version="1.0" encoding="UTF-8"?>
<svg version="1.1" xmlns="http://www.w3.org/2000/svg" width="1024" height="1024">
<path d="M0 0 C337.92 0 675.84 0 1024 0 C1024 337.92 1024 675.84 1024 1024 C686.08 1024 348.16 1024 0 1024 C0 686.08 0 348.16 0 0 Z " fill="#E6E4E5" transform="translate(0,0)"/>
<path d="M0 0 C2.50592517 1.39574204 4.52048243 2.69726498 6.75 4.4375 C7.35706787 4.89125 7.96413574 5.345 8.58959961 5.8125 C13.24182739 9.32075737 17.75855379 12.99671149 22.234375 16.7265625 C25.21218959 19.17442704 28.2498599 21.5351393 31.3125 23.875 C41.65058238 31.77913887 51.85145552 39.85423627 62 48 C62.80824219 48.64453125 63.61648438 49.2890625 64.44921875 49.953125 C70.67487026 54.91800878 76.84442548 59.9486034 83 65 C84.72881077 66.41710095 86.45798167 67.83376268 88.1875 69.25 C89.0846875 69.98863281 89.981875 70.72726563 90.90625 71.48828125 C93.24374348 73.38601901 95.59582986 75.25303466 97.96875 77.10546875 C105.64305489 83.13579001 112.42638315 88.89187837 118 97 C118.58346191 97.83990479 118.58346191 97.83990479 119.17871094 98.69677734 C121.47920948 102.00910979 123.75640504 105.33657299 126.0234375 108.671875 C129.04110521 113.08924392 132.16624189 117.42365775 135.3125 121.75 C141.72582738 130.58024761 147.98956247 139.51006175 154.22949219 148.46337891 C155.99507021 150.99293705 157.76607904 153.51859665 159.5390625 156.04296875 C165.88653299 165.08357151 172.19286019 174.14853769 178.38696289 183.29516602 C181.14730556 187.35577896 183.97617238 191.35111323 186.8828125 195.30859375 C191.82186862 202.06584798 196.39984245 209.04897934 201 216.0390625 C204.88240854 221.90817229 208.87837276 227.6335642 213.140625 233.234375 C217.04014098 239.0344954 219.64602604 245.33083693 222.0234375 251.875 C222.29209625 252.60259521 222.560755 253.33019043 222.83755493 254.07983398 C223.68769438 256.38499194 224.5315451 258.69238892 225.375 261 C225.93185717 262.51448275 226.48914616 264.02880679 227.046875 265.54296875 C227.88145106 267.80881492 228.71546885 270.07485262 229.54705811 272.34179688 C231.09075336 276.54752446 232.65496223 280.74454723 234.24195862 284.93411255 C237.04146596 292.33065482 239.69047186 299.77190698 242.28773499 307.24172974 C245.62217201 316.81913708 249.08922165 326.34724749 252.5625 335.875 C253.25841517 337.78709736 253.9542967 339.69920697 254.65014648 341.61132812 C258.9601634 353.44647384 263.30478414 365.26855768 267.67001343 377.08343506 C276.04428417 399.75825137 276.04428417 399.75825137 279.25 408.75 C279.51369385 409.47509766 279.7773877 410.20019531 280.04907227 410.94726562 C283.54793444 420.8942864 284.78214018 431.45977654 286.48666382 441.8276062 C287.14675601 445.83894368 287.81402049 449.84908951 288.48046875 453.859375 C288.61171646 454.64976669 288.74296417 455.44015839 288.87818909 456.25450134 C292.07224303 475.95554697 292.07224303 475.95554697 296.21875 495.46875 C298.97216353 507.91417918 300.85395316 520.58707223 302.75 533.1875 C302.87761719 533.99896484 303.00523437 534.81042969 303.13671875 535.64648438 C304.60892113 545.79475582 304.32734865 555.27500357 302 565.25 C301.53804627 567.34454212 301.07860632 569.43963956 300.62109375 571.53515625 C300.36440918 572.70191895 300.10772461 573.86868164 299.84326172 575.07080078 C298.32834161 582.05620344 296.96791216 589.07417946 295.57846069 596.08535767 C292.53649855 611.42687217 289.41762792 626.75049404 286.23046875 642.0625 C285.29553216 646.55800418 284.38572625 651.05707165 283.5 655.5625 C281.35848062 666.33345548 279.04093282 677.06692442 276.68603516 687.79296875 C276.10860656 690.49229333 275.57698618 693.19234969 275.07421875 695.90625 C273.28020016 705.05905715 269.50293483 711.17192784 263.51855469 718.16113281 C260.59104874 721.70614483 257.94726205 725.46640224 255.25 729.1875 C249.90809938 736.48941542 244.41773876 743.65959488 238.83789062 750.78076172 C235.73789589 754.74372321 232.69231676 758.72988779 229.75 762.8125 C229.14542969 763.6478125 228.54085937 764.483125 227.91796875 765.34375 C226.89037698 766.76689136 225.86406608 768.1909863 224.84619141 769.62109375 C223.59967606 771.36275955 222.33283749 773.08815622 221.0625 774.8125 C220.31097656 775.85019531 219.55945313 776.88789062 218.78515625 777.95703125 C215.49067922 781.89104995 211.29890978 784.27999359 207 787 C204.47944706 788.66915175 201.97310872 790.35933415 199.46484375 792.046875 C198.06344904 792.98482039 196.66175025 793.9223116 195.25976562 794.859375 C193.1095667 796.2968935 190.9598073 797.73503794 188.81176758 799.17578125 C180.45648472 804.77876969 172.05930622 810.28826257 163.49754333 815.57183838 C159.06107466 818.31235168 154.70679281 821.1597257 150.375 824.0625 C149.13172722 824.88834731 147.88826454 825.71390888 146.64453125 826.5390625 C144.22911678 828.1527622 141.86139174 829.81566841 139.51171875 831.5234375 C138.36207035 832.32825527 137.21233429 833.13294784 136.0625 833.9375 C135.08410156 834.64777344 134.10570312 835.35804688 133.09765625 836.08984375 C127.69228042 839.12514723 121.1868515 839.60777682 115.15048218 840.62063599 C111.72262144 841.22534084 108.32774583 841.96655678 104.9296875 842.71875 C104.26567429 842.86474136 103.60166107 843.01073273 102.91752625 843.16114807 C100.90288381 843.60534967 98.88891591 844.05251735 96.875 844.5 C95.524793 844.79841885 94.17453257 845.09659608 92.82421875 845.39453125 C92.15897186 845.54132828 91.49372498 845.68812531 90.80831909 845.83937073 C87.53905332 846.56037193 84.26955613 847.28031636 81 848 C79.77909668 848.27013916 78.55819336 848.54027832 77.30029297 848.81860352 C70.01783285 850.40961613 62.73688685 851.77361718 55.375 852.9375 C47.72003211 854.17980638 40.09992272 855.51804741 32.5 857.0625 C31.68063965 857.22709717 30.8612793 857.39169434 30.01708984 857.5612793 C26.30461865 858.31117903 22.60102752 859.08520335 18.90625 859.91796875 C-1.98429653 864.36765516 -20.84815112 860.84270703 -41.43151855 856.54707336 C-50.1475038 854.73826373 -58.90145725 853.15109284 -67.65896606 851.55822754 C-82.01449661 848.93807183 -96.34881466 846.21172557 -110.64044189 843.26168823 C-112.27349048 842.92536616 -113.90722603 842.59235958 -115.54168701 842.26296997 C-126.68931963 840.00895879 -136.04531915 837.31320079 -145.5 830.75 C-153.54348871 825.2420633 -161.7579081 820.01508694 -169.9921875 814.79785156 C-175.54762309 811.26337247 -180.99834127 807.63290621 -186.37182617 803.82836914 C-191.58369691 800.20257258 -196.92725122 796.77243809 -202.25 793.3125 C-203.97590491 792.18848019 -205.70149636 791.06398111 -207.42694092 789.93925476 C-208.98103875 788.92654629 -210.53590415 787.915016 -212.09082031 786.90356445 C-213.05084961 786.27538818 -214.01087891 785.64721191 -215 785 C-216.07411133 784.30495361 -217.14822266 783.60990723 -218.25488281 782.89379883 C-221.10985567 780.92421287 -222.57590428 779.23391581 -224.5 776.375 C-228.09523393 771.22228878 -231.87153853 766.25550329 -235.75 761.3125 C-241.72159945 753.67431536 -247.57498574 745.95756904 -253.36816406 738.18359375 C-255.18452488 735.75308341 -257.00961045 733.32927984 -258.8359375 730.90625 C-259.82605835 729.59116455 -259.82605835 729.59116455 -260.83618164 728.24951172 C-262.11025811 726.55756335 -263.38540529 724.86642046 -264.66186523 723.17626953 C-266.45388341 720.79324849 -268.23108731 718.40021733 -270 716 C-270.63856934 715.13729492 -271.27713867 714.27458984 -271.93505859 713.38574219 C-277.3115563 705.95119509 -279.20395601 699.46381042 -280.8125 690.5625 C-282.17618141 683.13561349 -283.67746973 675.75349505 -285.31640625 668.3828125 C-288.33923866 654.63004912 -291.05782021 640.81975932 -293.77587891 627.00415039 C-294.41315215 623.76918668 -295.05407605 620.53496134 -295.6953125 617.30078125 C-295.88288116 616.34117996 -296.07044983 615.38157867 -296.26370239 614.39289856 C-297.44489611 608.44399805 -298.83670159 602.57609566 -300.33273315 596.69883728 C-301.11159988 593.54862148 -301.73414928 590.39363102 -302.28125 587.1953125 C-302.48210205 586.041521 -302.6829541 584.88772949 -302.88989258 583.69897461 C-303.09122803 582.51956299 -303.29256348 581.34015137 -303.5 580.125 C-304.95316795 571.73653184 -306.42389661 563.4075233 -308.51953125 555.15234375 C-309.79025902 546.81512986 -308.87850906 538.7235135 -307.3125 530.5 C-307.13438278 529.5220195 -306.95626556 528.544039 -306.77275085 527.53642273 C-306.19109852 524.355831 -305.59573558 521.17798115 -305 518 C-304.59008101 515.77464646 -304.18099376 513.54913956 -303.77270508 511.32348633 C-302.72879258 505.64629739 -301.67331319 499.97132861 -300.61431885 494.29693604 C-299.83910498 490.13650607 -299.07022418 485.97492197 -298.30197144 481.8132019 C-295.3738483 465.95191464 -292.42166829 450.09523415 -289.37503052 434.25622559 C-288.5276478 429.83832821 -287.73163349 425.41992622 -287.00390625 420.98046875 C-285.90583044 414.9046086 -283.93477769 409.14350997 -281.9375 403.3125 C-281.54481934 402.15000732 -281.15213867 400.98751465 -280.74755859 399.78979492 C-277.03963718 388.91297972 -273.03768503 378.15182735 -268.92602539 367.42211914 C-268.13068652 365.34182467 -267.34512658 363.25842855 -266.56640625 361.171875 C-265.25673548 357.66863861 -263.9206182 354.17588058 -262.58203125 350.68359375 C-257.7763174 338.12342242 -253.07152093 325.5491431 -248.70605469 312.82739258 C-246.46421569 306.29985469 -244.09409955 299.83719991 -241.640625 293.38671875 C-239.0502216 286.52346801 -236.61473682 279.60205557 -234.15844727 272.68994141 C-231.08453717 264.08678726 -231.08453717 264.08678726 -229.3984375 260.30078125 C-228.03407488 257.08042813 -227.01212885 253.89032982 -226.01196289 250.54589844 C-223.55326035 242.47551843 -220.68185764 236.3687225 -215.35058594 229.76123047 C-212.27413484 225.74938697 -209.51604341 221.50059417 -206.6875 217.3125 C-205.37283338 215.37730685 -204.05773248 213.44240865 -202.7421875 211.5078125 C-202.10506836 210.56969727 -201.46794922 209.63158203 -200.81152344 208.66503906 C-194.19333661 198.92863376 -187.49789797 189.25040506 -180.69506836 179.64208984 C-176.73388712 174.04691338 -172.80126532 168.4322194 -168.875 162.8125 C-161.76281248 152.64149362 -154.56293325 142.53865728 -147.28686523 132.484375 C-142.45240162 125.80263066 -137.63678628 119.10878438 -132.875 112.375 C-132.3807251 111.67963135 -131.8864502 110.9842627 -131.37719727 110.26782227 C-128.93154249 106.81056124 -126.54846546 103.33028378 -124.26171875 99.765625 C-118.63485341 91.07316533 -112.80259264 84.49705364 -104.57128906 78.20849609 C-102.12238955 76.32501993 -99.75480435 74.34461016 -97.375 72.375 C-95.58380634 70.91608574 -93.79214249 69.45774856 -92 68 C-90.16620121 66.50056908 -88.33287057 65.00056542 -86.5 63.5 C-83.77618311 61.2700196 -81.05119199 59.04164013 -78.3203125 56.8203125 C-73.33772662 52.76203241 -68.39788518 48.65970957 -63.5 44.5 C-57.72337468 39.5956527 -51.8813074 34.77856227 -46 30 C-44.74984568 28.97935566 -43.49985625 27.95850933 -42.25 26.9375 C-33.5774804 19.8601083 -24.89123748 12.80179667 -16 6 C-15.13375 5.33484375 -14.2675 4.6696875 -13.375 3.984375 C-12.2303125 3.15679687 -12.2303125 3.15679687 -11.0625 2.3125 C-10.43472656 1.85488281 -9.80695313 1.39726563 -9.16015625 0.92578125 C-5.89075251 -0.47539178 -3.52609312 -0.40555704 0 0 Z " fill="#060606" transform="translate(511,54)"/>
<path d="M0 0 C6.10400764 5.05364269 11.68623029 10.54119017 17.28125 16.1484375 C18.26324165 17.12975367 19.24538155 18.11092151 20.22766113 19.09194946 C22.27661099 21.13943315 24.32376263 23.18869311 26.36962891 25.23925781 C28.97163869 27.8469566 31.57810337 30.45014886 34.18595123 33.05200768 C36.21255763 35.07497266 38.23674195 37.10034781 40.26023865 39.12642288 C41.68065318 40.54781447 43.10305605 41.96721822 44.5255127 43.38656616 C48.23524033 47.10961518 51.90552358 50.81888966 55.31567383 54.82006836 C60.03309376 60.30886266 65.22733292 65.33758225 70.35921288 70.43437767 C72.26618485 72.32844312 74.16988995 74.22574006 76.0728302 76.12385559 C80.10823301 80.14790691 84.14757522 84.16798919 88.1875 88.1875 C92.88300684 92.85934768 97.57685299 97.53283944 102.26650429 102.21056557 C104.13673867 104.07434644 106.00997146 105.93507691 107.88334656 107.79570007 C109.03330053 108.94202048 110.18311375 110.08848209 111.33276367 111.23510742 C111.84972809 111.74690552 112.3666925 112.25870361 112.89932251 112.78601074 C115.13138765 115.01775038 117.20541982 117.25932775 119.16670227 119.73530579 C120.97403622 122.19769428 120.97403622 122.19769428 124 124 C124.96386719 126.40063477 124.96386719 126.40063477 125.796875 129.44140625 C126.11188965 130.56869141 126.4269043 131.69597656 126.75146484 132.85742188 C127.24573975 134.69143555 127.24573975 134.69143555 127.75 136.5625 C128.28515304 138.49307501 128.82031073 140.42364878 129.35592651 142.35409546 C129.89973782 144.32110962 130.43837687 146.28947413 130.97558594 148.25830078 C132.14757554 152.53902351 133.34832774 156.81114674 134.55297852 161.08276367 C136.69662598 168.69026103 138.81039172 176.30599793 140.91033936 183.92565918 C141.81766854 187.21708077 142.72699146 190.50795054 143.6362915 193.79882812 C144.30120144 196.20904413 144.96288614 198.62013071 145.62451172 201.03125 C146.03727735 202.52608518 146.45019361 204.02087878 146.86328125 205.515625 C147.04946518 206.19788147 147.23564911 206.88013794 147.42747498 207.58306885 C148.41961267 211.15922815 149.57801995 214.57379982 151 218 C151.46798523 219.74209531 151.90340332 221.4931431 152.3125 223.25 C153.53022585 228.25552635 154.90346784 233.19007337 156.375 238.125 C158.09505829 243.90274728 159.77017197 249.68914414 161.375 255.5 C161.67531128 256.58631714 161.67531128 256.58631714 161.98168945 257.69458008 C162.41323959 259.25646797 162.84462879 260.81840034 163.27587891 262.38037109 C164.69829989 267.52621641 166.12893527 272.66974936 167.5625 277.8125 C167.84335449 278.82570313 168.12420898 279.83890625 168.41357422 280.8828125 C170.48210567 288.29635231 172.71841552 295.64961214 175 303 C176.42008105 307.5896996 177.82562892 312.18286957 179.2019043 316.78588867 C179.61218935 318.14765444 180.02830156 319.5076769 180.44995117 320.8659668 C184.2323658 333.07251935 183.86614727 340.24811673 179.6875 352.25 C178.96574853 354.37095859 178.24442292 356.49206213 177.5234375 358.61328125 C177.12479492 359.77811035 176.72615234 360.94293945 176.31542969 362.14306641 C174.04651968 368.78285683 171.82170189 375.43751393 169.5975647 382.09240723 C168.83523162 384.36959762 168.06860199 386.64530628 167.30151367 388.92089844 C164.62763438 396.88872428 162.07713991 404.8691165 159.83345032 412.97032166 C158.52571007 417.58244161 156.84250344 421.95559574 155.03016663 426.39186096 C153.30051324 430.77093557 151.85815781 435.24004226 150.3984375 439.71484375 C149.73704245 441.71942192 149.07558227 443.72397861 148.4140625 445.72851562 C147.38785615 448.85083982 146.36315583 451.97364986 145.33984375 455.09692383 C144.34235777 458.13750192 143.33942738 461.17624286 142.3359375 464.21484375 C142.0307016 465.15230942 141.7254657 466.08977509 141.41098022 467.0556488 C141.12373077 467.92407913 140.83648132 468.79250946 140.54052734 469.68725586 C140.29056 470.44985214 140.04059265 471.21244843 139.78305054 471.99815369 C138.31093296 475.76158019 137.24126383 476.89212398 133.51367188 478.55883789 C132.0024242 479.12351879 130.48710024 479.6773613 128.96875 480.22265625 C127.74698311 480.67502655 127.74698311 480.67502655 126.50053406 481.13653564 C123.83688456 482.12078698 121.16850342 483.09149501 118.5 484.0625 C116.65884524 484.74065272 114.81810766 485.41993908 112.9777832 486.1003418 C110.21895815 487.12025611 107.4599302 488.13955835 104.69953918 489.15522766 C97.50100001 491.8047237 90.33724186 494.53374959 83.1875 497.3125 C72.09008173 501.60960046 60.93983501 505.75697869 49.7734375 509.87109375 C47.8489034 510.58058017 45.9244181 511.290199 44 512 C43.27296875 512.26772217 42.5459375 512.53544434 41.796875 512.8112793 C37.42984815 514.43205955 33.10914911 516.15397527 28.79321289 517.90600586 C12.10184673 524.67580734 12.10184673 524.67580734 4 527 C3.23558594 527.25910156 2.47117187 527.51820313 1.68359375 527.78515625 C-2.30530557 528.10450045 -5.39879665 526.5223138 -9 525 C-11.1130881 524.16677094 -13.22782257 523.33771091 -15.34375 522.51171875 C-17.72922644 521.57046398 -20.11464065 520.62905147 -22.5 519.6875 C-36.06581101 514.34518733 -49.66083005 509.14652095 -63.42089844 504.32348633 C-68.94274192 502.38452321 -74.44451095 500.39421778 -79.9375 498.375 C-80.69393799 498.09793213 -81.45037598 497.82086426 -82.22973633 497.53540039 C-88.85381657 495.09197942 -95.39598194 492.45860533 -101.94018555 489.81005859 C-105.0842596 488.5378899 -108.229614 487.268921 -111.375 486 C-112.42171875 485.57460938 -113.4684375 485.14921875 -114.546875 484.7109375 C-116.11308594 484.08058594 -116.11308594 484.08058594 -117.7109375 483.4375 C-118.74573242 483.0146875 -119.78052734 482.591875 -120.84667969 482.15625 C-123.98395096 480.93566762 -123.98395096 480.93566762 -127.28613281 480.21875 C-135.08027208 478.31017595 -135.08027208 478.31017595 -137.69824219 474.58081055 C-139.05107128 471.42656345 -140.05325144 468.29854733 -141 465 C-141.78225632 462.67263942 -142.56614387 460.34582655 -143.3515625 458.01953125 C-144.11474963 455.61888953 -144.87252698 453.21652155 -145.625 450.8125 C-146.38763243 448.40222082 -147.15064484 445.99206183 -147.9140625 443.58203125 C-148.27129395 442.45168457 -148.62852539 441.32133789 -148.99658203 440.15673828 C-151.65244906 431.72483728 -151.65244906 431.72483728 -154.875 423.5 C-156.58285213 419.30046808 -157.89646971 415.04578226 -159.125 410.6875 C-161.4365413 402.5148879 -164.1966037 394.51507592 -167 386.5 C-170.00281343 377.91103118 -172.92423495 369.33618398 -175.36791992 360.57006836 C-176.92422575 355.03724232 -178.91686998 349.76437196 -181.08203125 344.44140625 C-183.58091251 335.0732599 -181.20856647 326.93340778 -178.4375 317.875 C-177.89331421 316.03663574 -177.89331421 316.03663574 -177.33813477 314.16113281 C-176.59275662 311.64521741 -175.8420334 309.13087931 -175.0859375 306.61816406 C-173.79456197 302.31551449 -172.53973196 298.00292166 -171.28930664 293.68823242 C-169.29364696 286.8043791 -167.2723721 279.92797471 -165.25390625 273.05078125 C-161.89490161 261.58960321 -158.61738856 250.10959405 -155.4206543 238.60205078 C-153.95787327 233.35434985 -152.45420011 228.13194175 -150.8125 222.9375 C-149.44311079 218.59441624 -148.3091098 214.24150462 -147.25 209.8125 C-145.51624757 202.58808493 -143.34799573 195.52492123 -141.125 188.4375 C-138.48819471 180.02651739 -136.03947607 171.60739952 -133.875 163.0625 C-132.04965922 155.87722756 -130.10215999 148.7594744 -127.875 141.6875 C-127.64538574 140.95345947 -127.41577148 140.21941895 -127.17919922 139.46313477 C-126.48346797 137.29707171 -125.74352583 135.15011053 -125 133 C-124.626688 131.84968544 -124.626688 131.84968544 -124.24583435 130.6761322 C-121.85739762 123.94577249 -118.55039482 119.74994989 -113.41796875 114.8671875 C-112.68556473 114.14564484 -111.95316071 113.42410217 -111.19856262 112.68069458 C-108.87542388 110.3974035 -106.53257882 108.13573042 -104.1875 105.875 C-101.85762402 103.60290553 -99.53207618 101.3264915 -97.20857239 99.04788208 C-95.76845438 97.63840656 -94.32398503 96.23335722 -92.87431335 94.83370972 C-89.67143009 91.7241467 -86.5900196 88.58657938 -83.68481445 85.19580078 C-79.55564147 80.39900993 -75.07577109 75.96282211 -70.58444214 71.50927734 C-69.02526273 69.9630726 -67.46941379 68.41358104 -65.91430664 66.86328125 C-62.05434197 63.01655775 -58.18890098 59.17535284 -54.3236084 55.33398438 C-51.04550558 52.07574304 -47.76955008 48.8153701 -44.49630737 45.55224609 C-42.97690534 44.03923948 -41.45448297 42.5293203 -39.93188477 41.01953125 C-35.29979547 36.41168626 -30.80786309 31.74610545 -26.55612183 26.78320312 C-24.11025874 23.98042083 -21.49027852 21.36591596 -18.84765625 18.75 C-18.30265976 18.20641846 -17.75766327 17.66283691 -17.19615173 17.1027832 C-15.48730783 15.39945185 -13.77498803 13.69966674 -12.0625 12 C-10.88973991 10.83226626 -9.71721202 9.66429926 -8.54492188 8.49609375 C-5.69928311 5.66136766 -2.85052547 2.82981176 0 0 Z " fill="#E5E3E4" transform="translate(508,265)"/>
<path d="M0 0 C11.57248967 6.50817855 22.47033073 13.88411497 33.40675354 21.3949585 C44.39749403 28.93906064 55.46607122 36.36252082 66.5625 43.75 C67.46988922 44.35474152 68.37727844 44.95948303 69.31216431 45.58255005 C81.5909552 53.76549107 93.89257764 61.9109844 106.27368164 69.93847656 C108.07711197 71.10956349 109.87505424 72.28917754 111.66552734 73.47998047 C113.14222285 74.44148499 114.64617564 75.36335632 116.18212891 76.22705078 C118.11328125 77.37890625 118.11328125 77.37890625 121 80 C121.48431396 81.938797 121.48431396 81.938797 121.65136719 84.15551758 C121.71685257 84.95797409 121.78233795 85.7604306 121.84980774 86.58720398 C121.89937119 87.38342667 121.94893463 88.17964935 122 89 C122.04686447 89.67549393 122.09372894 90.35098785 122.14201355 91.04695129 C122.26983227 93.07502408 122.37104414 95.1028904 122.46484375 97.1328125 C122.50239777 97.90319855 122.53995178 98.67358459 122.5786438 99.46731567 C122.70161255 102.01973014 122.8197962 104.57233768 122.9375 107.125 C122.97946503 108.01296265 123.02143005 108.90092529 123.06466675 109.8157959 C123.96861212 128.9845996 124.65500484 148.16135078 125.30249023 167.34033203 C125.63909028 177.16485694 126.00103995 186.96007406 126.7746582 196.76074219 C127.23176041 203.3315245 127.38145575 209.91689326 127.5625 216.5 C127.58367889 217.23458435 127.60485779 217.9691687 127.62667847 218.72601318 C127.98280507 231.15252271 128.12082721 243.56822217 128 256 C126 256 126 256 124.625 254.63671875 C123.820625 253.67185547 123.820625 253.67185547 123 252.6875 C120.06250578 249.22982451 117.06275384 245.84755259 114 242.5 C110.54424587 238.71065874 107.1347711 234.88916302 103.76953125 231.01953125 C100.22423046 226.97334911 96.60541001 222.99256813 93 219 C88.23213025 213.72014424 83.48487782 208.42708194 78.8125 203.0625 C76.72788836 200.69035571 74.61571356 198.34443935 72.5 196 C69.23609152 192.38323655 66.01209051 188.73610392 62.8125 185.0625 C60.04158178 181.90938617 57.22355889 178.7991546 54.40625 175.6875 C53.6121875 174.800625 52.818125 173.91375 52 173 C51.44505859 172.50048828 50.89011719 172.00097656 50.31835938 171.48632812 C44.30569096 165.64157526 42.82216965 158.70344215 41.0255127 150.809021 C40.31022859 147.66617395 39.5434928 144.53656665 38.77960205 141.40524292 C38.39605518 139.83095458 38.01514337 138.25602187 37.63690186 136.68045044 C36.03309873 130.02043952 34.20711503 123.44008845 32.25 116.875 C31.82618042 115.44498657 31.82618042 115.44498657 31.39379883 113.98608398 C30.6007983 111.32254752 29.80131175 108.66104607 29 106 C28.276441 103.58358599 27.55478273 101.1666458 26.83691406 98.74853516 C26.24294282 96.74912972 25.64324921 94.75142654 25.04296875 92.75390625 C24.29377282 90.05736211 23.64434812 87.4226185 23.06640625 84.69140625 C21.93979092 79.4846165 20.34994398 74.4526061 18.75 69.375 C15.67841734 59.46508743 12.97625326 49.4952146 10.40625 39.4453125 C9.13077666 34.46430878 7.77074636 29.51095725 6.375 24.5625 C4.08121886 16.41549565 2.00517275 8.22232848 0 0 Z " fill="#E5E2E3" transform="translate(596,219)"/>
<path d="M0 0 C0.99 0.495 0.99 0.495 2 1 C1.74831055 1.91587891 1.49662109 2.83175781 1.23730469 3.77539062 C0.28120362 7.25649649 -0.67246289 10.73826582 -1.62548828 14.22021484 C-2.03403024 15.71160062 -2.44318519 17.20281866 -2.85302734 18.69384766 C-5.39464968 27.94235547 -7.83531206 37.20488252 -10.10888672 46.52319336 C-10.93393266 49.74222877 -11.86385752 52.89770474 -12.875 56.0625 C-14.6771019 61.76799635 -16.20189175 67.51887749 -17.6875 73.3125 C-20.15073758 82.88864608 -22.75555914 92.42077236 -25.4375 101.9375 C-25.63021484 102.62162964 -25.82292969 103.30575928 -26.02148438 104.01062012 C-28.79498474 113.84367608 -31.61232022 123.66391359 -34.55541992 133.44775391 C-36.00946584 138.3392834 -37.30147024 143.21404316 -38.37890625 148.203125 C-41.17564879 160.88075491 -43.76975141 167.82179249 -54 176 C-55.24409692 177.32138551 -56.45671743 178.67363261 -57.625 180.0625 C-60.20692909 183.08298643 -62.83497173 186.05231722 -65.5 189 C-68.18983431 191.98062721 -70.86310364 194.97245233 -73.5 198 C-76.89253093 201.89512811 -80.35194201 205.72782763 -83.8125 209.5625 C-85.72554149 211.69417481 -87.61887612 213.8401911 -89.5 216 C-92.89494939 219.89790485 -96.35665884 223.73347057 -99.8203125 227.5703125 C-101.69145094 229.6560618 -103.53924831 231.75817628 -105.375 233.875 C-108.84215166 237.85939573 -112.41975509 241.74010201 -116.00097656 245.62158203 C-118.60327179 248.44965131 -121.15009587 251.30993316 -123.625 254.25 C-124.800625 255.61125 -124.800625 255.61125 -126 257 C-126.33 257 -126.66 257 -127 257 C-127.13969689 247.65606658 -126.69926857 238.35519291 -126.23046875 229.02734375 C-126.14872004 227.36228476 -126.06719268 225.69721488 -125.98587036 224.03213501 C-125.76804011 219.58664145 -125.54680128 215.14132361 -125.32486343 210.69603348 C-125.14077519 206.99917198 -124.95886404 203.30220468 -124.77696133 199.6052351 C-123.90786333 181.9465947 -123.02265401 164.28882082 -122.1015625 146.6328125 C-122.03340836 145.3250032 -121.96525421 144.01719391 -121.89503479 142.66975403 C-121.58453072 136.72550492 -121.27099849 130.78144065 -120.9519043 124.83764648 C-120.89590057 123.76999557 -120.83989685 122.70234467 -120.78219604 121.6023407 C-120.67118419 119.52495491 -120.55435377 117.44787037 -120.43118286 115.37117004 C-120.11799125 109.80475957 -119.99002301 104.28758071 -120.05932617 98.71191406 C-120.05865646 97.49551743 -120.05798676 96.27912079 -120.05729675 95.02586365 C-120.06066573 92.69489841 -120.10400871 90.36350717 -120.19502258 88.03431702 C-120.17222238 83.26335768 -120.03991654 80.22529642 -116.88217163 76.50463867 C-114.25134753 74.3065296 -111.60066993 72.42906855 -108.6875 70.625 C-108.04202209 70.22454971 -107.39654419 69.82409943 -106.73150635 69.41151428 C-105.05563024 68.44931816 -103.32798631 67.57917878 -101.6015625 66.7109375 C-91.7727384 61.56017854 -82.66296785 55.34003731 -73.44961548 49.17645264 C-70.64075134 47.30221388 -67.82293965 45.44245204 -65.00073242 43.58837891 C-55.53953623 37.37125257 -46.13770797 31.07799085 -36.80767822 24.66566467 C-29.1911358 19.43284472 -21.50915076 14.30146019 -13.8125 9.1875 C-12.45370125 8.28331551 -11.09497724 7.3790187 -9.73632812 6.47460938 C-6.49173566 4.3151252 -3.24617024 2.15711163 0 0 Z " fill="#E4E2E3" transform="translate(419,220)"/>
<path d="M0 0 C0.66 0 1.32 0 2 0 C2.3309668 0.64211426 2.66193359 1.28422852 3.00292969 1.94580078 C9.2752452 14.09976108 15.60830212 26.20780389 22.19628906 38.19384766 C26.70868257 46.42172785 31.10791734 54.70754172 35.5 63 C43.77298624 78.61184454 52.12688073 94.17532393 60.8125 109.5625 C66.4177493 119.50096559 66.4177493 119.50096559 69.0625 124.3125 C69.91521484 125.85357422 69.91521484 125.85357422 70.78515625 127.42578125 C72 130 72 130 72 133 C69.99722973 134.57546561 68.0447301 135.91946477 65.89453125 137.26953125 C64.5085239 138.16602008 63.12262567 139.06267764 61.73681641 139.95947266 C60.97677307 140.44611389 60.21672974 140.93275513 59.43365479 141.43414307 C55.017662 144.27547165 50.64398743 147.18126933 46.26171875 150.07421875 C44.35117668 151.33178323 42.44036587 152.58893952 40.52929688 153.84570312 C39.56886475 154.47742432 38.60843262 155.10914551 37.61889648 155.76000977 C35.65591673 157.05073394 33.69269843 158.34109539 31.72924805 159.63110352 C28.84336581 161.52748568 25.95870776 163.42571831 23.07421875 165.32421875 C22.21044113 165.89105881 21.34666351 166.45789886 20.45671082 167.04191589 C14.56278083 170.92373349 8.76198207 174.92504825 3 179 C-0.06229846 177.49927461 -2.85716027 175.83917313 -5.69140625 173.9375 C-7.08842773 173.00284912 -7.08842773 173.00284912 -8.51367188 172.04931641 C-10.0228418 171.03490479 -10.0228418 171.03490479 -11.5625 170 C-13.1393457 168.94498291 -13.1393457 168.94498291 -14.74804688 167.86865234 C-18.75208914 165.18966762 -22.75338428 162.50660096 -26.75457764 159.82336426 C-30.83448824 157.08773607 -34.91600568 154.35452835 -39 151.625 C-39.56885925 151.2447467 -40.13771851 150.86449341 -40.72381592 150.47271729 C-49.70882488 144.47232575 -58.77396242 138.62322045 -68 133 C-66.37229869 127.2936908 -63.6634706 122.32565543 -60.875 117.125 C-59.86996937 115.22846 -58.86607072 113.33131971 -57.86328125 111.43359375 C-57.37166504 110.50401855 -56.88004883 109.57444336 -56.37353516 108.61669922 C-54.55980371 105.16138929 -52.7985943 101.68233733 -51.0625 98.1875 C-50.75344727 97.56609131 -50.44439453 96.94468262 -50.12597656 96.30444336 C-49.46082989 94.96497673 -48.79630708 93.62520017 -48.13232422 92.28515625 C-41.41144359 78.72167142 -34.64709076 65.1918012 -27.55078125 51.8203125 C-25.23768757 47.46126355 -22.96141325 43.08370481 -20.68847656 38.70361328 C-13.94671671 25.71793986 -7.00785737 12.84375806 0 0 Z " fill="#E4E2E3" transform="translate(506,71)"/>
<path d="M0 0 C4.30190291 1.43396764 5.81137423 4.69812975 8.25 8.3125 C12.83809509 14.96718951 17.56027121 21.49171521 22.4375 27.9375 C27.81355531 35.05603011 33.08924592 42.23579676 38.29003906 49.4831543 C41.86265302 54.45190528 45.50061944 59.36553444 49.1875 64.25 C54.59044388 71.4093435 59.81741055 78.67970468 65 86 C66.66468579 88.33475532 68.33221599 90.66745551 70 93 C68.69675557 95.74877107 67.25299914 98.17477308 65.453125 100.625 C64.94515381 101.32117432 64.43718262 102.01734863 63.91381836 102.73461914 C63.09022827 103.85598267 63.09022827 103.85598267 62.25 105 C57.41157962 111.64154155 52.63884535 118.32320715 47.9375 125.0625 C47.06134033 126.31800659 47.06134033 126.31800659 46.16748047 127.59887695 C45.00498828 129.26477122 43.84255248 130.93070484 42.68017578 132.59667969 C40.08994234 136.30174479 37.48384623 139.99552628 34.875 143.6875 C34.38765381 144.377229 33.90030762 145.06695801 33.39819336 145.77758789 C32.42149396 147.15958101 31.44468782 148.54149869 30.46777344 149.92333984 C27.48346274 154.14565302 24.50283639 158.37056819 21.52148438 162.5949707 C18.89832194 166.31154949 16.27412559 170.0273925 13.6484375 173.7421875 C13.10058594 174.51755859 12.55273438 175.29292969 11.98828125 176.09179688 C10.93652032 177.58030598 9.88445184 179.06859784 8.83203125 180.55664062 C8.35894531 181.22630859 7.88585937 181.89597656 7.3984375 182.5859375 C6.98255371 183.1742334 6.56666992 183.7625293 6.13818359 184.36865234 C5.07115334 185.8980166 4.03440932 187.44838602 3 189 C2.34 189 1.68 189 1 189 C0.76925781 188.09121094 0.53851562 187.18242188 0.30078125 186.24609375 C-2.09521152 177.01252477 -4.90504914 168.02289749 -8 159 C-8.48021439 157.55633767 -8.95932097 156.11230652 -9.4375 154.66796875 C-11.04936039 149.82159732 -12.73996917 145.00440118 -14.4375 140.1875 C-16.66195141 133.85195646 -18.87021829 127.51405113 -20.9609375 121.1328125 C-21.80127224 118.59917166 -22.66393341 116.07637144 -23.5390625 113.5546875 C-23.81097412 112.7620752 -24.08288574 111.96946289 -24.36303711 111.15283203 C-24.89686505 109.59703261 -25.43638111 108.04316849 -25.98266602 106.49169922 C-28.19002622 100.01302857 -30.24483257 93.64558921 -27.375 87.0625 C-25.49084881 82.38438488 -23.9936979 77.72070746 -22.625 72.875 C-20.92790842 66.94014947 -19.03748245 61.11681981 -16.9375 55.3125 C-14.71100236 49.15289639 -12.80141776 42.97431786 -11.0625 36.65625 C-9.82944267 32.41308212 -8.42577996 28.24393341 -7 24.0625 C-4.29889414 16.12322064 -2.03957313 8.13429754 0 0 Z " fill="#E4E2E3" transform="translate(733,507)"/>
<path d="M0 0 C0.66 0 1.32 0 2 0 C3.92197224 5.88536783 5.84248325 11.77120985 7.76171875 17.6574707 C8.41302292 19.65434226 9.06470654 21.65109011 9.71679688 23.64770508 C12.9389987 33.51446266 16.15134666 43.37933596 19.17236328 53.30981445 C20.40367475 57.31212154 21.72432816 61.28237459 23.0625 65.25 C23.55338542 66.71354167 24.04427083 68.17708333 24.53515625 69.640625 C24.77411621 70.35089844 25.01307617 71.06117188 25.25927734 71.79296875 C26.288187 74.85867187 27.30680556 77.92777761 28.32495117 80.99707031 C28.945604 82.83860225 29.59639446 84.66990449 30.25 86.5 C33.02336399 99.44236529 25.39922132 113.9007304 21.0625 125.8125 C17.98319406 134.35678007 14.98452837 142.88419499 12.35546875 151.578125 C10.02974181 159.25659615 7.50488257 166.87534554 5.03295898 174.5078125 C4.65598877 175.67570313 4.27901855 176.84359375 3.890625 178.046875 C3.55063477 179.09713867 3.21064453 180.14740234 2.86035156 181.22949219 C2.16227294 183.47744799 1.53725312 185.70946049 1 188 C0.34 188 -0.32 188 -1 188 C-2.41357422 186.25024414 -2.41357422 186.25024414 -4.0546875 183.78515625 C-4.66328613 182.87991211 -5.27188477 181.97466797 -5.89892578 181.04199219 C-6.55103027 180.05875977 -7.20313477 179.07552734 -7.875 178.0625 C-9.24370874 176.02661529 -10.61351189 173.99146594 -11.984375 171.95703125 C-12.66564453 170.94334473 -13.34691406 169.9296582 -14.04882812 168.88525391 C-16.69427152 164.97336076 -19.39544142 161.10352162 -22.125 157.25 C-22.60573975 156.5705835 -23.08647949 155.89116699 -23.58178711 155.19116211 C-26.62741239 150.90082514 -29.70894145 146.63734379 -32.80029297 142.37988281 C-38.3632707 134.71813776 -43.79596455 126.98655642 -49.09399414 119.13891602 C-51.89529415 115.00764982 -54.75731388 110.9425546 -57.7421875 106.94140625 C-58.65387695 105.71357422 -58.65387695 105.71357422 -59.58398438 104.4609375 C-60.75401093 102.89409714 -61.93460407 101.33507709 -63.12695312 99.78515625 C-63.91102539 98.73328125 -63.91102539 98.73328125 -64.7109375 97.66015625 C-65.17806152 97.04793213 -65.64518555 96.43570801 -66.12646484 95.80493164 C-67 94 -67 94 -66.74145508 91.91577148 C-65.69709649 89.21735796 -64.10123021 87.27476227 -62.3125 85 C-58.0902573 79.53745718 -54.11995164 73.923989 -50.1875 68.25 C-44.48531565 60.04952654 -38.58616336 52.03106275 -32.55810547 44.06884766 C-29.69989598 40.27372588 -26.88067958 36.4498938 -24.0625 32.625 C-23.48193848 31.83714111 -22.90137695 31.04928223 -22.30322266 30.23754883 C-17.57968017 23.81392414 -12.90562673 17.35512559 -8.26196289 10.87353516 C-2.42732096 2.75096375 -2.42732096 2.75096375 0 0 Z " fill="#E4E1E2" transform="translate(282,508)"/>
<path d="M0 0 C0.08807717 5.58660916 -0.22433455 10.9555888 -0.875 16.5 C-1.69008352 23.84666801 -2.39263711 31.19573698 -3 38.5625 C-3.08306396 39.56974121 -3.16612793 40.57698242 -3.25170898 41.61474609 C-3.67568637 46.82642548 -4.08034311 52.03916709 -4.46484375 57.25390625 C-5.69426529 73.86898887 -7.27562808 90.43013359 -9 107 C-28.8413408 108.70699794 -48.71093368 109.83211637 -68.59277344 110.9465332 C-70.78581077 111.06976241 -72.9788447 111.19305203 -75.171875 111.31640625 C-76.75012558 111.40479263 -76.75012558 111.40479263 -78.36026001 111.4949646 C-83.9192966 111.81027077 -89.47139084 112.16546309 -95.0234375 112.5859375 C-99.98607356 112.95600532 -104.89998302 113.12704613 -109.875 113.0625 C-110.57496094 113.05798828 -111.27492188 113.05347656 -111.99609375 113.04882812 C-113.66410278 113.03740341 -115.33206577 113.01949534 -117 113 C-111.66850427 101.21954857 -105.82063838 89.9215912 -99.3203125 78.74609375 C-95.87634249 72.82083826 -92.55001062 66.83270556 -89.23370361 60.83557129 C-88.25666861 59.07451981 -87.27275928 57.3174912 -86.28662109 55.56152344 C-82.37195693 48.57794316 -82.37195693 48.57794316 -78.796875 41.41796875 C-74.57237113 32.59479387 -69.33964351 29.25249566 -60.38671875 25.92089844 C-56.74587465 24.51610466 -53.20232127 22.90487611 -49.64038086 21.3125 C-46.48691864 19.90373509 -43.32500487 18.51579538 -40.16015625 17.1328125 C-35.61964339 15.14734601 -31.0810802 13.15757049 -26.54466248 11.1627655 C-23.59074994 9.86409055 -20.63612346 8.56704537 -17.68136597 7.27029419 C-16.2285846 6.63240693 -14.77604889 5.99395989 -13.32376099 5.35494995 C-11.28951766 4.46014916 -9.25426721 3.5676796 -7.21875 2.67578125 C-6.04248047 2.15927002 -4.86621094 1.64275879 -3.65429688 1.1105957 C-1 0 -1 0 0 0 Z " fill="#E4E1E2" transform="translate(727,718)"/>
<path d="M0 0 C8.18311102 2.5192547 15.93335345 5.91296956 23.75 9.375 C25.15456376 9.99476181 26.55918709 10.61438864 27.96386719 11.23388672 C30.85984921 12.51212092 33.75446462 13.79339623 36.6484375 15.07617188 C40.20996974 16.65336496 43.77771796 18.21584233 47.3480835 19.7729187 C50.01696042 20.93861823 52.68228642 22.11227285 55.34680176 23.28790283 C56.60675175 23.84207557 57.86805217 24.39318899 59.1307373 24.94110107 C60.88788795 25.70452645 62.6393955 26.48090069 64.390625 27.2578125 C65.38094727 27.6923877 66.37126953 28.12696289 67.39160156 28.57470703 C71.85019727 31.01099323 74.30987039 34.15767326 76.7421875 38.54296875 C77.24355225 39.43870605 77.74491699 40.33444336 78.26147461 41.25732422 C78.79393799 42.22428223 79.32640137 43.19124023 79.875 44.1875 C80.44162354 45.20344238 81.00824707 46.21938477 81.59204102 47.26611328 C82.79303645 49.42022475 83.99129604 51.57586351 85.18701172 53.73291016 C87.51302784 57.92450022 89.85857973 62.10497836 92.20458984 66.28540039 C93.94541035 69.38910334 95.68201653 72.49513445 97.41796875 75.6015625 C99.58377429 79.47494166 101.75601466 83.34455789 103.93727112 87.20925903 C104.9142861 88.94056765 105.88989082 90.67267187 106.86547852 92.40478516 C108.09399438 94.58552416 109.3248399 96.7649529 110.55834961 98.94287109 C111.11143799 99.92594238 111.66452637 100.90901367 112.234375 101.921875 C112.72131836 102.78393555 113.20826172 103.64599609 113.70996094 104.53417969 C114.98639213 106.9739895 116.02481043 109.42674298 117 112 C108.16070307 112.2110177 99.48417837 112.05014703 90.6875 111.125 C77.43153922 109.7545391 64.12586839 109.30914491 50.81518555 108.78564453 C36.51325705 108.20596177 22.26467134 107.17648539 8 106 C7.92927277 105.0864122 7.85854553 104.1728244 7.78567505 103.23155212 C7.1104347 94.51195745 6.43413337 85.79244579 5.75671577 77.07301998 C5.40870171 72.59307544 5.06106145 68.11310262 4.71435547 63.63305664 C4.31333486 58.45189521 3.91101275 53.270836 3.5078125 48.08984375 C3.40973171 46.82804354 3.40973171 46.82804354 3.30966949 45.54075241 C2.45618054 34.57841305 1.57376433 23.61984457 0.55203247 12.6716156 C0.16477158 8.42878363 -0.08890321 4.26692228 0 0 Z " fill="#E4E2E3" transform="translate(291,719)"/>
<path d="M0 0 C1.8203003 0.6465302 3.61931646 1.35553999 5.39453125 2.1171875 C6.420625 2.55409912 7.44671875 2.99101074 8.50390625 3.44116211 C9.59574219 3.91432861 10.68757812 4.38749512 11.8125 4.875 C12.94945312 5.36170166 14.08640625 5.84840332 15.2578125 6.34985352 C24.38279348 10.26783563 33.47691062 14.25789296 42.55004883 18.29443359 C47.07568313 20.30305054 51.6051343 22.26378915 56.2109375 24.08203125 C60.59665252 25.81371678 64.86766507 27.7255938 69.125 29.75 C69.7953125 30.06582031 70.465625 30.38164063 71.15625 30.70703125 C72.77205509 31.46876793 74.38621611 32.23399058 76 33 C72.21903012 36.93163471 68.21441363 40.3699029 63.9375 43.75 C63.2762915 44.27585693 62.61508301 44.80171387 61.93383789 45.34350586 C57.02791446 49.22866642 52.04283068 52.99829849 47.01953125 56.73046875 C41.86814562 60.60233815 36.82434635 64.60999144 31.76904297 68.60595703 C30.04982719 69.96073513 28.3249551 71.30789209 26.59765625 72.65234375 C21.49448706 76.63066409 16.42213741 80.63328769 11.4453125 84.76953125 C10.67550049 85.40914795 9.90568848 86.04876465 9.11254883 86.70776367 C7.60369998 87.96548472 6.09820198 89.22723892 4.59643555 90.4934082 C3.91105713 91.06534912 3.22567871 91.63729004 2.51953125 92.2265625 C1.60844604 92.99347412 1.60844604 92.99347412 0.67895508 93.77587891 C-1 95 -1 95 -4 96 C-6.34765625 94.41015625 -6.34765625 94.41015625 -9.0625 92.0625 C-10.04734375 91.22589844 -11.0321875 90.38929688 -12.046875 89.52734375 C-13.02140625 88.69332031 -13.9959375 87.85929688 -15 87 C-16.59751282 85.70011298 -18.20140169 84.40801041 -19.8125 83.125 C-20.62976563 82.47273437 -21.44703125 81.82046875 -22.2890625 81.1484375 C-26.008726 78.20057737 -29.74369091 75.27238133 -33.48022461 72.34594727 C-37.18024028 69.44378934 -40.85494178 66.51260611 -44.515625 63.56103516 C-50.32332336 58.88040851 -56.19769046 54.3205506 -62.1875 49.875 C-67.20790613 46.13992042 -72.16599875 42.34941227 -77 38.375 C-77.969375 37.57835937 -78.93875 36.78171875 -79.9375 35.9609375 C-80.618125 35.31382812 -81.29875 34.66671875 -82 34 C-82 33.34 -82 32.68 -82 32 C-72.31782144 27.73021939 -62.60401539 23.5369244 -52.875 19.375 C-42.36466186 14.87787808 -31.8650726 10.35668477 -21.375 5.8125 C-20.71417419 5.52646912 -20.05334839 5.24043823 -19.37249756 4.94573975 C-17.50586575 4.13764648 -15.63964187 3.32861115 -13.7734375 2.51953125 C-12.17121338 1.82500854 -12.17121338 1.82500854 -10.53662109 1.11645508 C-6.24316086 -0.77324595 -4.72192484 -1.02140291 0 0 Z " fill="#E4E2E3" transform="translate(512,806)"/>
<path d="M0 0 C2.53315347 2.53315347 2.97436731 4.63704707 4 8.0625 C4.495 9.68865234 4.495 9.68865234 5 11.34765625 C5.722381 13.98603999 6.35628367 16.57614634 6.92578125 19.24609375 C8.0832666 24.57738802 9.62925326 29.77422008 11.1875 35 C16.05325279 51.50186406 20.71844738 68.0577945 25.11328125 84.69140625 C26.86648876 91.23311005 28.76554047 97.73381207 30.64794922 104.23925781 C32.45387322 110.48670978 34.23408568 116.7411266 36 123 C36.32000977 124.12873535 36.64001953 125.2574707 36.96972656 126.42041016 C37.96994047 129.96481513 38.95540295 133.51303697 39.9375 137.0625 C40.25630127 138.18688477 40.57510254 139.31126953 40.90356445 140.46972656 C41.19191162 141.52256836 41.48025879 142.57541016 41.77734375 143.66015625 C42.03765381 144.59480713 42.29796387 145.52945801 42.56616211 146.49243164 C43.0106377 149.06148556 42.84383076 150.56071795 42 153 C41.67 152.01 41.34 151.02 41 150 C40.34 150 39.68 150 39 150 C37.66796875 148.64453125 37.66796875 148.64453125 36.1875 146.8125 C33.63450987 143.67088479 30.87284569 140.85244878 28 138 C27.24083282 137.24305344 26.48166565 136.48610687 25.69949341 135.70622253 C24.91452484 134.92427017 24.12955627 134.14231781 23.32080078 133.33666992 C18.86487134 128.89675678 14.41116233 124.454628 9.95906258 120.01087475 C7.27628115 117.33330737 4.59257205 114.65668361 1.90673828 111.98217773 C-0.70780358 109.37858536 -3.31981893 106.77248181 -5.9301796 104.16469765 C-6.91712786 103.17957847 -7.90494667 102.19533056 -8.89370346 101.2120266 C-13.85425624 96.27775718 -18.67332809 91.30567016 -23.22955322 85.99629211 C-26.7874263 81.98456239 -30.6316924 78.24725819 -34.43359375 74.46875 C-35.31153091 73.59222778 -36.18946808 72.71570557 -37.0940094 71.81262207 C-39.87281496 69.03937204 -42.65509397 66.26963718 -45.4375 63.5 C-47.33319865 61.60989195 -49.22809783 59.71898482 -51.12304688 57.828125 C-55.74605189 53.21608996 -60.37190657 48.60692859 -65 44 C-62.14895106 41.08741374 -59.36146802 38.74683428 -55.95703125 36.49609375 C-54.97404053 35.84334473 -53.9910498 35.1905957 -52.97827148 34.51806641 C-51.93356689 33.83147949 -50.8888623 33.14489258 -49.8125 32.4375 C-48.73621338 31.72513184 -47.65992676 31.01276367 -46.55102539 30.27880859 C-39.69734824 25.75053177 -32.81746179 21.26341845 -25.90844727 16.82006836 C-20.53296649 13.36058748 -15.20836663 9.828777 -9.90600586 6.25830078 C-6.65607911 4.07582146 -3.37700779 1.98050081 0 0 Z " fill="#E3E1E2" transform="translate(582,214)"/>
<path d="M0 0 C8.71227113 4.91074984 17.01683909 10.26852789 25.25 15.9375 C27.69646022 17.6167156 30.14459865 19.29346216 32.59375 20.96875 C33.20708191 21.38865707 33.82041382 21.80856415 34.45233154 22.24119568 C38.64980771 25.10533518 42.88829853 27.89846406 47.15625 30.65625 C48.27973272 31.38663046 49.40310763 32.11717678 50.52636719 32.84790039 C52.63956574 34.21770245 54.75982128 35.57669204 56.88769531 36.92358398 C58.29680176 37.84119507 58.29680176 37.84119507 59.734375 38.77734375 C60.56163086 39.30577881 61.38888672 39.83421387 62.24121094 40.37866211 C62.82161133 40.91370361 63.40201172 41.44874512 64 42 C64 46 64 46 62.7563324 47.71795654 C62.17343948 48.28895081 61.59054657 48.85994507 60.98999023 49.44824219 C60.33187851 50.1028241 59.67376678 50.75740601 58.99571228 51.43182373 C58.27396317 52.12979065 57.55221405 52.82775757 56.80859375 53.546875 C55.70149803 54.64192352 55.70149803 54.64192352 54.57203674 55.75909424 C52.20309282 58.09899463 49.8209895 60.42492583 47.4375 62.75 C45.08154702 65.06323157 42.72847427 67.37931683 40.37794495 69.69805908 C38.91464238 71.13994215 37.44783646 72.57828181 35.97691345 74.01239014 C32.7130852 77.21390365 29.56178561 80.44572935 26.58032227 83.91308594 C22.48490729 88.66822947 18.0512833 93.05531889 13.59375 97.46875 C12.26845276 98.78836731 12.26845276 98.78836731 10.91638184 100.13464355 C7.6402768 103.39656945 4.3596502 106.65392564 1.07867432 109.91094971 C-2.14830538 113.1148726 -5.3713808 116.32269116 -8.59375 119.53125 C-9.43248657 120.36168823 -10.27122314 121.19212646 -11.13537598 122.04772949 C-15.4274331 126.32201412 -19.55410416 130.65624736 -23.4576416 135.28991699 C-25.52705403 137.5843688 -27.85027647 139.46734378 -30.234375 141.421875 C-32.90133041 143.8056139 -35.14158705 146.51649279 -37.421875 149.265625 C-39 151 -39 151 -42 153 C-41.37727407 148.92940658 -40.5345643 145.02174221 -39.43359375 141.0546875 C-39.11688721 139.9092749 -38.80018066 138.7638623 -38.47387695 137.58374023 C-38.13187256 136.35985596 -37.78986816 135.13597168 -37.4375 133.875 C-37.07949492 132.5847657 -36.72166915 131.29448164 -36.36401367 130.00415039 C-33.57308317 119.95768415 -30.68902652 109.93854966 -27.79736328 99.9206543 C-25.61987019 92.32317902 -23.58285249 84.70634555 -21.80981445 77.00366211 C-20.68974734 72.27681775 -19.2496588 67.73480822 -17.66796875 63.140625 C-14.57075561 54.08667852 -12.30008238 44.84459028 -10 35.5625 C-7.02376448 23.57733907 -3.832868 11.74223578 0 0 Z " fill="#E4E2E2" transform="translate(434,214)"/>
<path d="M0 0 C9.04753645 8.94549657 17.71199469 18.23569896 25.65234375 28.1796875 C29.5725735 32.88918148 33.80119046 37.30970509 37.9921875 41.77734375 C40.8422557 44.81794331 43.60488811 47.92348424 46.328125 51.078125 C48.35758073 53.41105074 50.427647 55.70511245 52.5 58 C55.75899377 61.61131742 58.97928181 65.2518847 62.171875 68.921875 C65.07071731 72.21714019 68.02907691 75.45849702 70.984375 78.703125 C76.01995211 84.44134078 76.01995211 84.44134078 75.875 88.5 C74.56722376 96.11921812 72.606179 103.49864755 69.84326172 110.71435547 C68.15929226 115.27872202 66.72321575 119.92677631 65.25 124.5625 C64.90291992 125.65006592 64.55583984 126.73763184 64.19824219 127.8581543 C61.52025033 136.28261958 58.9341784 144.73321616 56.37963867 153.19580078 C54.36952733 159.83908093 52.2711258 166.44053728 50 173 C47.08385171 170.08385171 46.49609082 166.48207509 45.390625 162.609375 C45.1432811 161.76154953 44.89593719 160.91372406 44.64109802 160.04020691 C43.83750721 157.27865934 43.04354639 154.51444902 42.25 151.75 C41.70065143 149.85348842 41.1509277 147.95708547 40.60083008 146.06079102 C37.6508606 135.86676389 34.75634196 125.65968559 32.01000977 115.40869141 C30.05712126 108.13097937 27.94649123 100.90379945 25.81958008 93.67529297 C23.27118546 84.98945084 20.81579686 76.27901861 18.375 67.5625 C14.94161562 55.29339603 14.94161562 55.29339603 11.375 43.0625 C9.30376694 36.07659895 7.29486125 29.07414742 5.3125 22.0625 C5.01456543 21.01908447 4.71663086 19.97566895 4.40966797 18.90063477 C2.6491381 12.64269671 1.16448538 6.39625694 0 0 Z " fill="#E4E2E3" transform="translate(649,409)"/>
<path d="M0 0 C1.36982312 2.73964623 0.63373709 3.84128445 -0.2578125 6.7421875 C-0.55115479 7.71583252 -0.84449707 8.68947754 -1.14672852 9.69262695 C-1.46955811 10.74281006 -1.7923877 11.79299316 -2.125 12.875 C-4.4619132 20.64983078 -6.67153327 28.41716147 -8.5625 36.3125 C-10.29103783 43.46711895 -12.34916223 50.44276748 -14.62915039 57.43920898 C-16.80474861 64.19523202 -18.67708618 71.01620552 -20.5 77.875 C-24.67704723 93.57960525 -29.1021417 109.17237703 -33.9375 124.6875 C-38.80375406 140.31694157 -43.07488819 156.10901334 -47 172 C-47.66 172 -48.32 172 -49 172 C-49.29390625 170.98550781 -49.5878125 169.97101563 -49.890625 168.92578125 C-53.10194951 157.98248004 -56.55416029 147.12543272 -60.08959961 136.28353882 C-64.02814529 124.20544428 -67.96195279 112.12629602 -71.75 100 C-72.08499512 98.94538574 -72.41999023 97.89077148 -72.76513672 96.80419922 C-73.06436035 95.83756348 -73.36358398 94.87092773 -73.671875 93.875 C-74.06004395 92.63363281 -74.06004395 92.63363281 -74.45605469 91.3671875 C-75.0520721 88.77338821 -75.25746884 86.65146788 -75 84 C-73.20859029 81.70264206 -71.47834544 79.73558569 -69.4375 77.6875 C-68.32480033 76.52933762 -67.21281723 75.37048637 -66.1015625 74.2109375 C-65.56305664 73.65631836 -65.02455078 73.10169922 -64.46972656 72.53027344 C-62.6885691 70.67573939 -60.99034681 68.76071076 -59.3125 66.8125 C-56.74286926 63.84273211 -54.13180445 60.91488929 -51.5 58 C-48.84886006 55.06321535 -46.21709829 52.11397458 -43.625 49.125 C-40.64082864 45.69667291 -37.57792571 42.34397051 -34.5 39 C-29.30728968 33.35328698 -24.23451045 27.62275218 -19.2578125 21.78515625 C-12.96114231 14.40432484 -6.57857207 7.13163787 0 0 Z " fill="#E3E1E2" transform="translate(367,410)"/>
<path d="M0 0 C3.45192155 1.15064052 3.56792439 1.50504287 5.12890625 4.58251953 C5.71466431 5.71972946 5.71466431 5.71972946 6.31225586 6.87991333 C6.93112671 8.11884842 6.93112671 8.11884842 7.5625 9.3828125 C7.99506104 10.23044159 8.42762207 11.07807068 8.87329102 11.9513855 C10.25810992 14.67133797 11.62887494 17.39812339 13 20.125 C13.92362669 21.9405381 14.84809602 23.75564779 15.7734375 25.5703125 C16.6622071 27.31993234 17.55025105 29.06992103 18.4375 30.8203125 C19.05637085 32.04102951 19.05637085 32.04102951 19.68774414 33.28640747 C21.95592548 37.79978182 24.06312902 42.33453867 26 47 C18.64265783 52.23603846 11.13926029 57.21343744 3.5625 62.125 C-4.91497535 67.63865262 -13.33219945 73.22604474 -21.65698242 78.96850586 C-28.64164807 83.77794919 -35.69053951 88.48895733 -42.75 93.1875 C-43.33431793 93.57642426 -43.91863586 93.96534851 -44.5206604 94.36605835 C-47.34170122 96.24336173 -50.16336413 98.11972513 -52.98535156 99.99560547 C-56.8676034 102.57685649 -60.74664473 105.16289989 -64.625 107.75 C-65.75388201 108.50264053 -66.88278661 109.25524718 -68.01171875 110.0078125 C-69.49091797 110.99394531 -69.49091797 110.99394531 -71 112 C-74 114 -77 116 -80 118 C-80.66 117.67 -81.32 117.34 -82 117 C-75.48815738 107.46755829 -68.97180448 97.93906782 -62.38671875 88.45703125 C-60.50123813 85.73410552 -58.63370735 82.99927082 -56.76953125 80.26171875 C-56.19847656 79.42382812 -55.62742187 78.5859375 -55.0390625 77.72265625 C-53.92157434 76.08181957 -52.80558854 74.43995827 -51.69140625 72.796875 C-48.72273349 68.43939246 -45.66502748 64.17809084 -42.48022461 59.97631836 C-39.95206081 56.60084649 -37.54398584 53.14160705 -35.125 49.6875 C-31.81045387 44.96957067 -28.48372471 40.26653417 -25.0625 35.625 C-20.83387643 29.8514722 -16.83189643 23.92659039 -12.80615234 18.01098633 C-8.65214003 11.91912666 -4.40103721 5.9168023 0 0 Z " fill="#E2E0E1" transform="translate(398,157)"/>
<path d="M0 0 C0.66 0 1.32 0 2 0 C3.33984375 1.87890625 3.33984375 1.87890625 4.9375 4.5625 C7.83236956 9.24572906 10.90414164 13.7065744 14.1875 18.125 C19.74404426 25.61846809 25.13169089 33.221763 30.49267578 40.85595703 C32.45657687 43.64944251 34.42810221 46.43750042 36.3996582 49.22558594 C45.71747475 62.40590959 54.96927765 75.63228665 64.17675781 88.88989258 C70.71820805 98.30844087 77.293585 107.69807342 84 117 C83.67 117.66 83.34 118.32 83 119 C32.24609375 85.1640625 32.24609375 85.1640625 29.15576172 83.10375977 C27.04681233 81.69784789 24.93776236 80.29208689 22.82861328 78.88647461 C14.12514253 73.08575708 14.12514253 73.08575708 9.93359375 70.27734375 C-1.31022019 62.74873024 -12.65640318 55.3771078 -24 48 C-22.73863635 43.95836671 -21.24543425 40.28929003 -19.27734375 36.54296875 C-18.74262451 35.52001709 -18.20790527 34.49706543 -17.65698242 33.44311523 C-17.08955322 32.36876221 -16.52212402 31.29440918 -15.9375 30.1875 C-15.35911377 29.08414307 -14.78072754 27.98078613 -14.18481445 26.84399414 C-12.46155588 23.55999453 -10.73189176 20.27945351 -9 17 C-8.50822266 16.06736328 -8.01644531 15.13472656 -7.50976562 14.17382812 C-5.01524105 9.44455116 -2.51245293 4.71977592 0 0 Z " fill="#E2E0E1" transform="translate(617,156)"/>
<path d="M0 0 C0.33 0 0.66 0 1 0 C1.0292483 3.20831391 1.04688189 6.41659307 1.0625 9.625 C1.07087891 10.52863281 1.07925781 11.43226563 1.08789062 12.36328125 C1.09111328 13.24628906 1.09433594 14.12929688 1.09765625 15.0390625 C1.10289307 15.84553223 1.10812988 16.65200195 1.11352539 17.48291016 C1 20 1 20 0.51423645 22.78511047 C0.0206697 25.87077776 -0.21156695 28.83507152 -0.34130859 31.95532227 C-0.39171799 33.12150589 -0.44212738 34.28768951 -0.49406433 35.48921204 C-0.54500748 36.75218613 -0.59595062 38.01516022 -0.6484375 39.31640625 C-0.70575103 40.66706388 -0.76344387 42.01770546 -0.82148743 43.36833191 C-0.94513327 46.25853818 -1.06670593 49.14882088 -1.18661499 52.03918457 C-1.50473742 59.69968374 -1.83680627 67.3595868 -2.16796875 75.01953125 C-2.21851504 76.19267694 -2.21851504 76.19267694 -2.27008247 77.38952255 C-3.00867044 94.51302814 -3.8353971 111.63181418 -4.6875 128.75 C-4.75470699 130.10254887 -4.82190674 131.45509811 -4.88909912 132.80764771 C-5.25696807 140.20522125 -5.62697558 147.60268462 -6 155 C-11.12889771 153.93472391 -16.07402735 152.76754581 -20.99609375 150.94140625 C-22.57680664 150.36229492 -22.57680664 150.36229492 -24.18945312 149.77148438 C-25.26130859 149.37251953 -26.33316406 148.97355469 -27.4375 148.5625 C-34.90033414 145.80165671 -42.34312367 143.17467708 -50 141 C-49.31135948 134.95640855 -47.20797081 129.44838773 -45.1875 123.75 C-44.84396484 122.76386719 -44.50042969 121.77773438 -44.14648438 120.76171875 C-42.22480102 115.28870688 -40.17852827 109.88860723 -37.99780273 104.51416016 C-35.82742154 99.04545804 -33.89435622 93.48622967 -31.91210938 87.94726562 C-30.49242669 84.00675371 -29.07792573 80.08379104 -27.40625 76.2421875 C-24.09548995 68.60904628 -21.52729987 60.65194843 -18.9375 52.75 C-17.4905244 48.36871929 -15.87946341 44.09888266 -14.13671875 39.828125 C-10.62662379 31.09510524 -7.24142012 22.30801354 -4.65234375 13.25390625 C-1.9382716 3.87654321 -1.9382716 3.87654321 0 0 Z " fill="#E1DFE0" transform="translate(287,331)"/>
<path d="M0 0 C2.67429332 2.67429332 3.46140299 5.72918875 4.65234375 9.234375 C4.90834854 9.9717691 5.16435333 10.70916321 5.42811584 11.46890259 C5.98079308 13.0621474 6.53094439 14.65627018 7.07885742 16.25115967 C8.52888997 20.47107597 9.9972019 24.68461958 11.46484375 28.8984375 C11.76135834 29.75100128 12.05787292 30.60356506 12.3633728 31.48196411 C15.56355617 40.66038235 18.91733722 49.78029699 22.30834961 58.88964844 C24.48439644 64.7607812 26.55909291 70.64867916 28.5 76.6015625 C30.3508331 82.22068022 32.45337185 87.6470486 34.78125 93.08300781 C36.88129214 98.10931058 38.68052018 103.24189534 40.5 108.375 C41.27845906 110.56386852 42.05710371 112.75267104 42.8359375 114.94140625 C43.20557617 115.98184082 43.57521484 117.02227539 43.95605469 118.09423828 C44.8570674 120.60215534 45.78116606 123.09841276 46.7265625 125.58984375 C47.18804688 126.81832031 47.64953125 128.04679688 48.125 129.3125 C48.51945313 130.33988281 48.91390625 131.36726562 49.3203125 132.42578125 C50.08237525 135.31198442 50.29162493 136.32297954 49 139 C46.68814994 140.119733 44.61346075 140.92745397 42.18359375 141.69140625 C41.49370865 141.92278793 40.80382355 142.15416962 40.09303284 142.39256287 C37.87931578 143.13139415 35.65896698 143.8473488 33.4375 144.5625 C31.24294442 145.28628526 29.04993614 146.01462791 26.85694885 146.7431488 C25.49245489 147.19451473 24.12675194 147.6422493 22.7596283 148.08558655 C19.3666368 149.18895065 16.02868513 150.36533502 12.70336914 151.65991211 C9 153 9 153 6 153 C5.96907761 152.19363098 5.93815521 151.38726196 5.90629578 150.55645752 C5.50527053 140.12076475 5.09799063 129.68532435 4.6875 119.25 C4.6544363 118.40791615 4.6213726 117.56583229 4.58730698 116.69823074 C3.84816429 97.89259736 3.08990245 79.088948 2.1328125 60.29296875 C2.09799837 59.60804226 2.06318424 58.92311577 2.02731514 58.21743393 C1.66870101 51.18302391 1.29757381 44.14934918 0.91479492 37.11621094 C0.25223979 24.72894398 -0.19029621 12.40550065 0 0 Z " fill="#E2E0E1" transform="translate(730,333)"/>
<path d="M0 0 C-1.36775819 4.58928001 -3.28902831 8.57023252 -5.6875 12.6875 C-6.49963175 14.10753926 -7.31075188 15.52815734 -8.12109375 16.94921875 C-8.57468262 17.74247559 -9.02827148 18.53573242 -9.49560547 19.35302734 C-12.44875895 24.5490822 -15.347389 29.77559653 -18.25 35 C-18.88518555 36.14275391 -19.52037109 37.28550781 -20.17480469 38.46289062 C-26.53582554 49.92875088 -32.78485973 61.45441997 -39 73 C-44.2742112 72.41213659 -48.43936986 70.64871555 -53.1875 68.4375 C-54.80266945 67.70285094 -56.41857872 66.96982664 -58.03515625 66.23828125 C-59.27289795 65.67681396 -59.27289795 65.67681396 -60.53564453 65.10400391 C-64.37383675 63.38453638 -68.24573484 61.74924349 -72.125 60.125 C-72.88997803 59.8043457 -73.65495605 59.48369141 -74.44311523 59.15332031 C-76.96114509 58.09996633 -79.480404 57.0496022 -82 56 C-83.01094727 55.5786377 -84.02189453 55.15727539 -85.06347656 54.72314453 C-91.43939796 52.0659792 -91.43939796 52.0659792 -97.81689453 49.41259766 C-102.89018462 47.30261843 -107.95516079 45.17717223 -113 43 C-112 41 -112 41 -110.13671875 40.32421875 C-109.32847656 40.11410156 -108.52023437 39.90398438 -107.6875 39.6875 C-103.79996914 38.58932744 -100.14716287 37.28613925 -96.4375 35.6875 C-91.6801898 33.65125003 -86.88874662 31.87140788 -82 30.1875 C-75.84574655 28.05699635 -69.78483231 25.76043025 -63.75 23.3125 C-46.4111313 16.29013808 -28.8767828 9.74755063 -11.3125 3.3125 C-9.93215576 2.80396484 -9.93215576 2.80396484 -8.52392578 2.28515625 C-7.68716309 1.9809375 -6.85040039 1.67671875 -5.98828125 1.36328125 C-5.26165283 1.09813721 -4.53502441 0.83299316 -3.78637695 0.55981445 C-2 0 -2 0 0 0 Z " fill="#E2E0E1" transform="translate(637,757)"/>
<path d="M0 0 C1.83705419 2.75558128 2.73824655 4.84096115 3.76953125 7.9453125 C4.10146484 8.94175781 4.43339844 9.93820312 4.77539062 10.96484375 C5.11763672 12.00769531 5.45988281 13.05054688 5.8125 14.125 C6.14314453 15.11371094 6.47378906 16.10242188 6.81445312 17.12109375 C8.79339943 23.09971464 10.62486734 29.10687388 12.37109375 35.15625 C14.79731684 43.52385312 17.56421743 51.75482623 20.42053223 59.98413086 C21.85152039 64.10883051 23.26811645 68.2384835 24.6875 72.3671875 C25.110383 73.59553314 25.110383 73.59553314 25.54180908 74.84869385 C28.13769742 82.39031561 30.70914576 89.93964076 33.25 97.5 C33.6202832 98.58974121 33.99056641 99.67948242 34.37207031 100.80224609 C35.95126486 105.51787544 37.42186715 110.03485902 38 115 C33.88754009 114.04240452 30.07860926 112.4896928 26.1875 110.875 C25.42614746 110.56006592 24.66479492 110.24513184 23.88037109 109.9206543 C18.01718677 107.47247271 12.26505822 104.8268226 6.5234375 102.10546875 C0.30770993 99.18622828 -5.97546313 96.41481649 -12.25 93.625 C-13.45382324 93.0885083 -14.65764648 92.5520166 -15.89794922 91.99926758 C-17.02990723 91.4967749 -18.16186523 90.99428223 -19.328125 90.4765625 C-20.85808105 89.797146 -20.85808105 89.797146 -22.41894531 89.10400391 C-25.04071321 87.94068454 -25.04071321 87.94068454 -28 87 C-26.43652438 79.46324575 -24.37599075 72.12739821 -22.1875 64.75 C-21.85685547 63.61175781 -21.52621094 62.47351563 -21.18554688 61.30078125 C-19.157559 54.44221189 -16.81434456 47.80462196 -14.19360352 41.15185547 C-12.33282338 36.23823888 -10.84927731 31.22802681 -9.375 26.1875 C-6.73117882 17.21398984 -3.75163802 8.57517262 0 0 Z " fill="#E1E0E0" transform="translate(319,620)"/>
<path d="M0 0 C8.53234434 2.08087485 16.5509305 5.03010845 24.6875 8.3125 C34.02246131 12.04752929 43.38440872 15.67868638 52.80740356 19.18374634 C56.76675259 20.65772171 60.72302036 22.13993763 64.6796875 23.62109375 C65.51206436 23.93266922 66.34444122 24.24424469 67.20204163 24.56526184 C68.90408364 25.20238806 70.60610477 25.83957005 72.30810547 26.47680664 C74.01564 27.11587345 75.72332174 27.75454708 77.43115234 28.39282227 C89.32355185 32.8379511 101.17874621 37.36889203 113 42 C109.61762089 44.25491941 106.10222862 45.7030806 102.359375 47.23046875 C101.60013733 47.54397781 100.84089966 47.85748688 100.05865479 48.18049622 C96.82365847 49.51625064 93.58566249 50.84465758 90.34765625 52.1730957 C80.8799116 56.06260533 71.51984542 60.0852819 62.26904297 64.46655273 C58.12187341 66.41191286 53.92946522 68.21078966 49.6875 69.9375 C48.96111328 70.23978516 48.23472656 70.54207031 47.48632812 70.85351562 C42.25396825 73 42.25396825 73 40 73 C38.3917505 70.10515091 36.78350728 67.21029833 35.17529297 64.31542969 C33.79685747 61.83422917 32.41825998 59.35311875 31.03955078 56.87207031 C25.11861873 46.21657229 25.11861873 46.21657229 22.234375 41.0078125 C21.44800237 39.58849418 20.6615482 38.16922103 19.875 36.75 C19.49617676 36.06607178 19.11735352 35.38214355 18.72705078 34.67749023 C16.36594428 30.42582678 13.97592021 26.19150046 11.5703125 21.96484375 C10.97879395 20.92424805 10.38727539 19.88365234 9.77783203 18.81152344 C8.6176149 16.7727788 7.45465287 14.73559308 6.28857422 12.70019531 C5.76021973 11.77174805 5.23186523 10.84330078 4.6875 9.88671875 C4.21699219 9.06389404 3.74648438 8.24106934 3.26171875 7.39331055 C1.98948391 4.9800524 0.96651354 2.54929291 0 0 Z " fill="#E4E2E3" transform="translate(380,757)"/>
<path d="M0 0 C0.66 0 1.32 0 2 0 C6.88061177 13.9706173 11.6895007 27.96283644 16.375 42 C16.79120605 43.24410645 17.20741211 44.48821289 17.63623047 45.77001953 C19.6351478 51.77653426 21.58156281 57.78763745 23.35375977 63.86523438 C24.03042922 66.10051872 24.79124286 68.29572657 25.5625 70.5 C26.66216177 73.73476364 27.44277585 76.92649451 28.08984375 80.28125 C28.26249756 81.16876953 28.43515137 82.05628906 28.61303711 82.97070312 C28.74073486 83.64037109 28.86843262 84.31003906 29 85 C19.09006629 89.34358233 9.17705691 93.6800872 -0.73815918 98.01159668 C-2.95752737 98.98143986 -5.17655169 99.95206602 -7.39550781 100.92285156 C-10.85703977 102.43688819 -14.32003205 103.94753696 -17.78411865 105.45571899 C-19.09013863 106.02491566 -20.39568491 106.59520053 -21.70074463 107.16659546 C-23.52317435 107.96425583 -25.34748412 108.75761665 -27.171875 109.55078125 C-28.7202002 110.22620972 -28.7202002 110.22620972 -30.29980469 110.9152832 C-32.54122291 111.81570103 -34.64333673 112.50017634 -37 113 C-36.57028868 111.14401281 -36.13080495 109.29028736 -35.6875 107.4375 C-35.44386719 106.40496094 -35.20023438 105.37242187 -34.94921875 104.30859375 C-34 101 -34 101 -32.58886719 97.76123047 C-30.9928803 94.09314308 -29.77781578 90.33999453 -28.62890625 86.51171875 C-28.19404199 85.09257687 -27.75797766 83.67380226 -27.32080078 82.25537109 C-26.99175751 81.18775543 -26.99175751 81.18775543 -26.65606689 80.09857178 C-25.05370307 74.97306472 -23.31934896 69.89010656 -21.60644531 64.80075073 C-16.61502696 49.96517149 -11.76151406 35.08684749 -6.97241211 20.18481445 C-6.492028 18.69482317 -6.01164079 17.20483288 -5.53125 15.71484375 C-5.31916397 15.0515506 -5.10707794 14.38825745 -4.88856506 13.7048645 C-3.39530224 9.07863744 -1.73192972 4.54064325 0 0 Z " fill="#E2E0E1" transform="translate(697,622)"/>
<path d="M0 0 C10.92194715 8.08224089 21.51517369 16.57439893 32.03930664 25.16455078 C36.30170707 28.63792201 40.60062826 32.05773099 44.9375 35.4375 C50.19755792 39.53938003 55.36248472 43.74580107 60.5 48 C69.18181084 55.1886102 77.95216093 62.2743666 87 69 C85.36799496 74.877161 82.45419637 79.89817839 79.5 85.1875 C78.42067684 87.14126566 77.34257554 89.09570676 76.265625 91.05078125 C75.72228516 92.03643066 75.17894531 93.02208008 74.61914062 94.03759766 C72.11251972 98.62374634 69.67584537 103.24573761 67.25 107.875 C66.60514648 109.10512817 66.60514648 109.10512817 65.94726562 110.36010742 C64.96343957 112.23933716 63.98148406 114.11954603 63 116 C60.1915699 112.53785069 58.16966401 108.74178161 56.12109375 104.8046875 C55.75292542 104.10444458 55.38475708 103.40420166 55.00543213 102.68273926 C54.21993139 101.18838409 53.43588347 99.6932645 52.65316772 98.19744873 C50.61540969 94.30445357 48.56577751 90.41772867 46.515625 86.53125 C46.11627243 85.77387543 45.71691986 85.01650085 45.3054657 84.23617554 C42.13497343 78.23305506 38.88302001 72.2807794 35.55639648 66.36279297 C32.13828699 60.27719463 28.81568464 54.14192701 25.5 48 C21.61749428 40.8141125 17.71912486 33.63846557 13.75 26.5 C13.35377441 25.78714844 12.95754883 25.07429688 12.54931641 24.33984375 C10.51220577 20.68465638 8.45676543 17.04066418 6.3828125 13.40625 C5.96161133 12.66568359 5.54041016 11.92511719 5.10644531 11.16210938 C4.30498482 9.7549456 3.4998331 8.34987567 2.69042969 6.94726562 C0 2.22248919 0 2.22248919 0 0 Z " fill="#E4E2E2" transform="translate(523,77)"/>
<path d="M0 0 C0.99 0.495 0.99 0.495 2 1 C1.7097998 1.55534424 1.41959961 2.11068848 1.12060547 2.68286133 C-4.98090743 14.36177977 -11.06564537 26.04914862 -17.125 37.75 C-21.14552089 45.51121529 -25.17599516 53.26670937 -29.25 61 C-29.64719238 61.75458496 -30.04438477 62.50916992 -30.45361328 63.28662109 C-32.45266246 67.07996287 -34.46214392 70.8674017 -36.484375 74.6484375 C-37.32376994 76.2235039 -38.16231111 77.79902559 -39 79.375 C-39.40774658 80.14191162 -39.81549316 80.90882324 -40.2355957 81.69897461 C-43.96614965 88.79122371 -47.38059103 96.02590864 -50.68945312 103.32373047 C-51.07939453 104.16693848 -51.46933594 105.01014648 -51.87109375 105.87890625 C-52.21068115 106.6272876 -52.55026855 107.37566895 -52.90014648 108.14672852 C-54 110 -54 110 -57 112 C-59.81194697 106.5191767 -62.62362633 101.03821624 -65.43505859 95.55712891 C-66.39136533 93.6928334 -67.34774498 91.8285753 -68.30419922 89.96435547 C-69.67955421 87.2836272 -71.05464631 84.60276423 -72.4296875 81.921875 C-72.85684052 81.08944275 -73.28399353 80.2570105 -73.72409058 79.39935303 C-74.12435455 78.61884583 -74.52461853 77.83833862 -74.93701172 77.03417969 C-75.46329666 76.00825714 -75.46329666 76.00825714 -76.00021362 74.96160889 C-76.33014313 74.31427795 -76.66007263 73.66694702 -77 73 C-77.37670837 72.29972183 -77.75341675 71.59944366 -78.14154053 70.87794495 C-79 69 -79 69 -78.79833984 66.91870117 C-77.39974614 63.55737153 -74.38125678 61.56467324 -71.625 59.3125 C-70.99086182 58.78213135 -70.35672363 58.2517627 -69.70336914 57.70532227 C-67.81047178 56.12659874 -65.90732986 54.56123972 -64 53 C-63.03707031 52.20851562 -62.07414062 51.41703125 -61.08203125 50.6015625 C-59.3129094 49.1538616 -57.54074563 47.70987036 -55.765625 46.26953125 C-52.70632043 43.75900024 -49.69693691 41.19480056 -46.6875 38.625 C-41.6393721 34.32196106 -36.47421585 30.19784134 -31.2355957 26.12988281 C-26.63972718 22.54504158 -22.1996608 18.80311855 -17.78027344 15.00415039 C-13.11082402 11.02159626 -8.23573774 7.37482064 -3.265625 3.77734375 C-0.92141268 2.19923797 -0.92141268 2.19923797 0 0 Z " fill="#E2E1E1" transform="translate(487,80)"/>
<path d="M0 0 C0.33 0 0.66 0 1 0 C0.2807661 8.88405812 -1.69111225 17.49240541 -3.5625 26.1875 C-3.92227353 27.87595575 -4.2815579 29.56451581 -4.64038086 31.25317383 C-5.38584638 34.75905888 -6.13339889 38.26448803 -6.8828125 41.76953125 C-8.6218699 49.90621191 -10.34482779 58.04628102 -12.0625 66.1875 C-12.22581818 66.96082672 -12.38913635 67.73415344 -12.55740356 68.53091431 C-16.17175221 85.66058063 -19.60683559 102.82531841 -23 120 C-25.78807474 118.72740361 -27.83286268 117.41609041 -29.98828125 115.2421875 C-30.52590088 114.70327881 -31.06352051 114.16437012 -31.61743164 113.60913086 C-32.1768042 113.03686768 -32.73617676 112.46460449 -33.3125 111.875 C-33.89572021 111.28533447 -34.47894043 110.69566895 -35.07983398 110.08813477 C-38.56228285 106.54343852 -41.88891431 102.91267093 -45.1015625 99.12109375 C-49.50490379 94.2013112 -54.29820817 89.63230722 -59 85 C-50.65660525 71.3979163 -41.15631941 58.57881229 -31.79321289 45.6706543 C-27.76207251 40.09664975 -23.8401337 34.45542681 -19.96386719 28.77294922 C-16.52544466 23.73892709 -13.00025621 18.77290544 -9.43701172 13.82666016 C-6.5305774 9.78030884 -3.74935483 5.66896645 -1.05859375 1.4765625 C-0.53458984 0.74566406 -0.53458984 0.74566406 0 0 Z " fill="#E2E0E0" transform="translate(799,624)"/>
<path d="M0 0 C2.6794459 2.57417808 4.9511433 5.15076377 7.06640625 8.203125 C7.62875977 9.01056152 8.19111328 9.81799805 8.77050781 10.64990234 C9.36186523 11.50793457 9.95322266 12.3659668 10.5625 13.25 C11.18092773 14.14025879 11.79935547 15.03051758 12.43652344 15.94775391 C16.67847906 22.06154621 20.88811912 28.19761064 25.09375 34.33642578 C29.23895749 40.37540617 33.49007327 46.33546088 37.76611328 52.28222656 C39.01217064 54.01694354 40.25478757 55.75406803 41.49609375 57.4921875 C42.11689819 58.36133789 42.11689819 58.36133789 42.75024414 59.24804688 C43.57730631 60.40745265 44.40333179 61.56759871 45.22827148 62.72851562 C47.407646 65.79146701 49.61088152 68.83309937 51.8515625 71.8515625 C52.315625 72.48320313 52.7796875 73.11484375 53.2578125 73.765625 C54.14856226 74.97704467 55.04667313 76.18309679 55.953125 77.3828125 C58.33846663 80.64534428 59 81.81034717 59 86 C57.55053711 87.88769531 57.55053711 87.88769531 55.52734375 89.828125 C54.79193359 90.54613281 54.05652344 91.26414062 53.29882812 92.00390625 C52.51958984 92.74511719 51.74035156 93.48632812 50.9375 94.25 C45.92986709 99.08170065 41.07986612 103.92613477 36.54760742 109.20996094 C34.51402575 111.56210178 32.37616404 113.79217078 30.1875 116 C29.43855469 116.763125 28.68960938 117.52625 27.91796875 118.3125 C26 120 26 120 24 120 C20.200927 101.17819669 20.200927 101.17819669 18.625 92.5625 C16.9584726 83.56142067 15.06567231 74.60823481 13.19628906 65.64746094 C11.85784234 59.21255664 10.55530857 52.7782563 9.375 46.3125 C8.25844829 40.20084852 6.93672131 34.1557668 5.55908203 28.09936523 C3.46290326 18.78133714 1.73680358 9.39046694 0 0 Z " fill="#E2E0E1" transform="translate(217,624)"/>
<path d="M0 0 C3.3788353 1.54012028 6.16880442 3.50969223 9.125 5.75 C9.63434082 6.13559082 10.14368164 6.52118164 10.66845703 6.91845703 C21.54659967 15.18507734 32.2856922 23.63616666 43.01635742 32.09277344 C46.88271258 35.13548306 50.77919047 38.13646296 54.6875 41.125 C66.63861574 50.28327116 66.63861574 50.28327116 72 55 C72 55.33 72 55.66 72 56 C64.48277554 55.45552294 57.20872318 54.41659594 49.82421875 52.92578125 C48.26968491 52.61902718 48.26968491 52.61902718 46.68374634 52.30607605 C43.35056215 51.6469721 40.01902693 50.97992535 36.6875 50.3125 C34.39030903 49.85631271 32.09302659 49.40058575 29.7956543 48.9453125 C25.2677418 48.04701221 20.7404991 47.14545352 16.21386719 46.24072266 C10.8965834 45.17805629 5.57762975 44.12411471 0.2578125 43.07421875 C-2.39074819 42.55009824 -5.03913258 42.02509703 -7.6875 41.5 C-8.8525708 41.26966064 -10.0176416 41.03932129 -11.21801758 40.80200195 C-16.8557457 39.67530827 -22.43708584 38.45294977 -28 37 C-26.727455 34.28873319 -25.34681973 32.00347448 -23.4609375 29.6796875 C-22.96674316 29.06681885 -22.47254883 28.4539502 -21.96337891 27.82250977 C-21.43921387 27.17983154 -20.91504883 26.53715332 -20.375 25.875 C-19.83665527 25.20847412 -19.29831055 24.54194824 -18.74365234 23.85522461 C-17.1652412 21.90119217 -15.58272002 19.9505425 -14 18 C-9.22376918 12.07715748 -4.51622635 6.12427664 0 0 Z " fill="#E3E1E1" transform="translate(418,846)"/>
<path d="M0 0 C9.28334822 2.30572463 18.20107536 5.44906459 27.1875 8.6875 C28.63072419 9.20415382 30.07408275 9.72043245 31.51757812 10.23632812 C35.01327549 11.48657215 38.50713753 12.7418544 42 14 C40.78996189 17.26516543 39.48074062 19.99020554 37.41796875 22.79296875 C36.90484131 23.49631348 36.39171387 24.1996582 35.86303711 24.92431641 C35.31010986 25.67116699 34.75718262 26.41801758 34.1875 27.1875 C33.00501216 28.80324187 31.82272613 30.41913144 30.640625 32.03515625 C30.03541016 32.85902832 29.43019531 33.68290039 28.80664062 34.53173828 C26.53543139 37.63470116 24.29210779 40.75715474 22.04956055 43.88085938 C16.91004934 51.03554467 11.69021308 58.12312445 6.38964844 65.15917969 C-1.25468484 75.30935281 -8.7870214 85.53748838 -16 96 C-17.38457973 92.19240575 -16.6212158 89.32807643 -15.75 85.4375 C-14.4535343 79.44059935 -13.40945812 73.44229825 -12.5 67.375 C-11.51879487 60.91966941 -10.28366882 54.61118679 -8.74609375 48.26171875 C-6.7423802 39.50202862 -5.42640735 30.58038242 -3.95703125 21.71875 C-3.777771 20.63827393 -3.59851074 19.55779785 -3.41381836 18.44458008 C-3.05972387 16.30412941 -2.70761281 14.16334949 -2.35766602 12.0222168 C-2.19580811 11.03906494 -2.0339502 10.05591309 -1.8671875 9.04296875 C-1.72394043 8.16664795 -1.58069336 7.29032715 -1.43310547 6.38745117 C-1.04118614 4.22703455 -0.56144527 2.12186957 0 0 Z " fill="#E2E0E0" transform="translate(234,482)"/>
<path d="M0 0 C3.92762579 2.9006141 6.71114497 5.96712085 9.625 9.875 C10.49266893 11.0279618 11.36119092 12.18028201 12.23046875 13.33203125 C12.6795459 13.92967285 13.12862305 14.52731445 13.59130859 15.14306641 C15.99813488 18.31573898 18.46916665 21.43759825 20.9375 24.5625 C22.62906674 26.70523015 24.31620509 28.85113028 26 31 C26.59941406 31.75152344 27.19882812 32.50304687 27.81640625 33.27734375 C29 35 29 35 29 37 C21.06069029 38.59259177 13.12114557 40.18400542 5.1813345 41.77409554 C1.49065616 42.51325483 -2.19995337 43.25275332 -5.89038086 43.99316406 C-13.7624453 45.57230564 -21.63560587 47.14569879 -29.51098061 48.70825577 C-33.91302601 49.5823841 -38.31299792 50.46623653 -42.71183491 51.3563633 C-45.58877707 51.9367791 -48.46711761 52.51001801 -51.34583855 53.08153915 C-52.70479421 53.35289898 -54.06315593 53.62725235 -55.42086983 53.90475845 C-57.29191387 54.28674085 -59.16532358 54.65708029 -61.03881836 55.02685547 C-62.09741562 55.23970184 -63.15601288 55.45254822 -64.24668884 55.67184448 C-66.88134082 55.98585751 -68.51691926 55.85568562 -71 55 C-70.175 54.35675781 -69.35 53.71351563 -68.5 53.05078125 C-62.65692317 48.48282259 -56.84153621 43.88855672 -51.10571289 39.1862793 C-43.90453685 33.28278838 -36.57305298 27.60577006 -29.09765625 22.0546875 C-24.00236689 18.2693332 -18.96894292 14.40389085 -13.93383789 10.5390625 C-9.31259685 6.99443442 -4.66598287 3.48552643 0 0 Z " fill="#E3E1E1" transform="translate(598,846)"/>
<path d="M0 0 C2.63262588 10.61711948 4.85741796 21.2127949 6.58068848 32.01455688 C6.94880177 34.32080621 7.32449112 36.6257152 7.70214844 38.93041992 C8.21912021 42.08596747 8.73412244 45.24182456 9.24755859 48.39794922 C10.38536391 55.37454538 11.56125972 62.34442511 12.75 69.3125 C12.94843506 70.49682617 13.14687012 71.68115234 13.35131836 72.90136719 C14.2901048 78.39188195 15.36323385 83.67695182 17 89 C17.36270588 90.99488234 17.70640699 92.9937811 18 95 C17.34 95 16.68 95 16 95 C14.625 93.05078125 14.625 93.05078125 13 90.3125 C9.96712447 85.40747908 6.66668235 80.86118745 3.11083984 76.32470703 C-0.50197588 71.69423456 -3.95300585 66.96033471 -7.375 62.1875 C-11.52101416 56.40944071 -15.71382485 50.67490442 -20 45 C-26.01020382 37.04032362 -31.845868 28.95865735 -37.65649414 20.85253906 C-38.63073098 19.50917923 -39.64004188 18.19103349 -40.66967773 16.88964844 C-42 15 -42 15 -42 13 C-38.03496189 11.63016175 -34.06970215 10.2609674 -30.10424805 8.89233398 C-28.75913692 8.42798676 -27.41408339 7.96347266 -26.0690918 7.4987793 C-22.86242987 6.39093663 -19.65493091 5.28574666 -16.44580078 4.18505859 C-14.35799737 3.4670341 -12.27235886 2.7426126 -10.19091797 2.00634766 C-6.57344706 0.74516339 -3.87279782 0 0 0 Z " fill="#E1DFE0" transform="translate(783,483)"/>
<path d="M0 0 C-4.03747849 4.46374613 -8.44910841 7.29134404 -13.625 10.3125 C-19.70489257 13.93819648 -25.49412435 17.71313723 -31.16015625 21.96484375 C-36.63352777 25.8873012 -42.40646229 29.34677673 -48.15087891 32.85449219 C-49.81984021 33.88839322 -51.46435711 34.9615024 -53.10546875 36.0390625 C-53.97816406 36.60367188 -54.85085938 37.16828125 -55.75 37.75 C-56.85601563 38.48476563 -56.85601563 38.48476563 -57.984375 39.234375 C-60 40 -60 40 -61.96606445 39.24365234 C-64.08369062 37.94882727 -65.12564118 36.87094875 -66.55859375 34.8671875 C-67.02104492 34.23296875 -67.48349609 33.59875 -67.95996094 32.9453125 C-68.44754883 32.26210938 -68.93513672 31.57890625 -69.4375 30.875 C-73.88683128 24.78202023 -78.47099985 18.83843 -83.25 13 C-83.82290771 12.29987793 -84.39581543 11.59975586 -84.98608398 10.87841797 C-86.32158942 9.25025231 -87.66040329 7.62480117 -89 6 C-86.24584477 4.47207252 -84.10157066 3.72321113 -80.96362305 3.51342773 C-80.17646408 3.45671906 -79.38930511 3.40001038 -78.57829285 3.34158325 C-77.73132339 3.28944672 -76.88435394 3.23731018 -76.01171875 3.18359375 C-75.12474808 3.12243378 -74.2377774 3.0612738 -73.32392883 2.9982605 C-70.44563487 2.80243513 -67.56670285 2.61943322 -64.6875 2.4375 C-62.71156413 2.30725454 -60.73565264 2.17663874 -58.75976562 2.0456543 C-39.16108832 0.76221563 -19.64506386 -0.20630756 0 0 Z " fill="#E2DFE0" transform="translate(700,838)"/>
<path d="M0 0 C11.26408934 -0.10618061 22.44038951 0.16785576 33.68359375 0.83984375 C35.20148517 0.92742966 36.71939433 1.01470854 38.23731995 1.10169983 C41.37593601 1.28266625 44.51432618 1.46704464 47.65258789 1.65405273 C51.67706576 1.89361726 55.70198298 2.12464169 59.7270956 2.3532629 C62.84213754 2.53105341 65.95692171 2.71306152 69.07164192 2.89639473 C70.55756337 2.98337915 72.0435602 3.06908574 73.52963066 3.15348625 C75.58961362 3.27114556 77.64918251 3.39443381 79.70874023 3.51928711 C81.46383156 3.62254555 81.46383156 3.62254555 83.25437927 3.72789001 C86 4 86 4 88 5 C86.71849145 7.74555539 85.32440934 10.00586309 83.3828125 12.328125 C82.86356201 12.95589844 82.34431152 13.58367188 81.80932617 14.23046875 C81.25349854 14.89691406 80.6976709 15.56335938 80.125 16.25 C73.4828381 24.30724341 67.19969542 32.59969197 61 41 C50.0373739 34.94108622 39.64045496 27.99659018 29.19189453 21.10400391 C27.00991311 19.66570531 24.82645701 18.23000081 22.64013672 16.79833984 C19.3178598 14.62271772 16.00232851 12.43695636 12.6875 10.25 C11.64948242 9.57074463 10.61146484 8.89148926 9.54199219 8.19165039 C8.58325195 7.55606201 7.62451172 6.92047363 6.63671875 6.265625 C5.78811279 5.70649414 4.93950684 5.14736328 4.06518555 4.57128906 C2 3 2 3 0 0 Z " fill="#E3E1E1" transform="translate(318,838)"/>
<path d="M0 0 C3.23014433 27.09614017 3.23014433 27.09614017 3.70874023 40.08520508 C3.82119574 43.05587614 3.98905444 45.93453828 4.47973633 48.86914062 C5.35048269 54.10914594 5.65855397 59.39431086 6.0625 64.6875 C6.15337891 65.80833984 6.24425781 66.92917969 6.33789062 68.08398438 C6.87731596 75.07217877 7.11917316 81.99173543 7 89 C2.832562 85.22325931 -0.25956491 80.96337714 -3.51953125 76.39453125 C-6.44417024 72.34381505 -9.54089456 68.42974041 -12.625 64.5 C-19.95198858 55.14735578 -27.00269872 45.60079877 -34 36 C-32.64768813 32.97022571 -31.14519457 30.91527387 -28.76953125 28.609375 C-28.1348291 27.98627441 -27.50012695 27.36317383 -26.84619141 26.72119141 C-25.83951416 25.74545166 -25.83951416 25.74545166 -24.8125 24.75 C-20.23509925 20.25023714 -15.77273013 15.75538927 -11.625 10.8515625 C-2.10126582 0 -2.10126582 0 0 0 Z " fill="#E1DFE0" transform="translate(280,722)"/>
<path d="M0 0 C0.66 0 1.32 0 2 0 C3.234375 1.2578125 3.234375 1.2578125 4.75 3.125 C8.29379377 7.30905903 12.10155393 11.15175731 16 15 C20.39610035 19.34883045 24.66656809 23.72467273 28.66796875 28.4453125 C30.34467275 30.40228667 32.14161257 32.21594807 34 34 C32.41951985 38.99200439 29.44596691 42.57727555 26.25 46.625 C25.06883387 48.14468523 23.88920093 49.6655631 22.7109375 51.1875 C22.09959961 51.97640625 21.48826172 52.7653125 20.85839844 53.578125 C17.80839933 57.55290051 14.839771 61.58645897 11.875 65.625 C11.00693726 66.80533813 11.00693726 66.80533813 10.12133789 68.00952148 C7.30534629 71.84331272 4.50043602 75.68487834 1.70703125 79.53515625 C1.1960791 80.23753418 0.68512695 80.93991211 0.15869141 81.66357422 C-0.80161716 82.98467578 -1.75910768 84.30783169 -2.71337891 85.63330078 C-3.78472753 87.10676417 -4.88871981 88.55641467 -6 90 C-6.33 90 -6.66 90 -7 90 C-6.29567778 76.47518689 -5.21216423 62.99339978 -4.0625 49.5 C-3.79242793 46.30192608 -3.52314137 43.10378669 -3.25393677 39.90563965 C-3.07811945 37.81716012 -2.90207708 35.72869952 -2.72579956 33.64025879 C-1.7804085 22.42973154 -0.88057947 11.21580166 0 0 Z " fill="#E1DFE0" transform="translate(737,722)"/>
<path d="M0 0 C2.95183101 2.95183101 3.08663988 5.95511947 4 10 C3.01 10.495 3.01 10.495 2 11 C1.59270772 13.32156597 1.25561323 15.6568787 1 18 C0.67 18 0.34 18 0 18 C0 12.06 0 6.12 0 0 Z " fill="#D0D0D0" transform="translate(730,333)"/>
<path d="M0 0 C0 3 0 3 -1 5 C-0.01 5.33 0.98 5.66 2 6 C-1.3 6.33 -4.6 6.66 -8 7 C-5.42215154 4.35247996 -3.08351902 2.05567935 0 0 Z " fill="#C8C7C6" transform="translate(535,895)"/>
<path d="M0 0 C2.33524782 2.25740623 4.18705073 4.2805761 6 7 C5.67 7.99 5.34 8.98 5 10 C4.01 10.33 3.02 10.66 2 11 C1.34 7.37 0.68 3.74 0 0 Z " fill="#D6D5D4" transform="translate(217,624)"/>
<path d="M0 0 C2.64 1.98 5.28 3.96 8 6 C7.34 7.65 6.68 9.3 6 11 C0 3.28571429 0 3.28571429 0 0 Z " fill="#C1C1C1" transform="translate(523,77)"/>
<path d="M0 0 C2.01920337 1.30406884 4.01924973 2.63823419 6 4 C6 4.33 6 4.66 6 5 C2.37 4.67 -1.26 4.34 -5 4 C-3.35 2.68 -1.7 1.36 0 0 Z " fill="#C4C4C4" transform="translate(484,897)"/>
<path d="M0 0 C5.61 0 11.22 0 17 0 C17 0.33 17 0.66 17 1 C15.75283203 1.09087891 15.75283203 1.09087891 14.48046875 1.18359375 C12.85044922 1.30927734 12.85044922 1.30927734 11.1875 1.4375 C10.10855469 1.51871094 9.02960938 1.59992187 7.91796875 1.68359375 C4.94010095 1.90212461 4.94010095 1.90212461 2 3 C1.34 2.01 0.68 1.02 0 0 Z " fill="#D4D3D4" transform="translate(318,838)"/>
<path d="M0 0 C0.33 0 0.66 0 1 0 C1 3.63 1 7.26 1 11 C0.01 10.34 -0.98 9.68 -2 9 C-1.125 2.25 -1.125 2.25 0 0 Z " fill="#E7E6E7" transform="translate(286,336)"/>
<path d="M0 0 C0.99 0.33 1.98 0.66 3 1 C3 1.99 3 2.98 3 4 C0.625 5.75 0.625 5.75 -2 7 C-2.66 6.67 -3.32 6.34 -4 6 C-2.68 4.02 -1.36 2.04 0 0 Z " fill="#D5D5D4" transform="translate(320,268)"/>
<path d="M0 0 C0.33 0 0.66 0 1 0 C0.67 2.97 0.34 5.94 0 9 C-1.32 8.01 -2.64 7.02 -4 6 C-2.69593116 3.98079663 -1.36176581 1.98075027 0 0 Z " fill="#A1A2A1" transform="translate(799,624)"/>
<path d="M0 0 C0.66 0 1.32 0 2 0 C0.47291037 3.43595166 -1.59927045 6.11912454 -4 9 C-4.66 8.67 -5.32 8.34 -6 8 C-5.04956626 6.66102417 -4.08940853 5.32894573 -3.125 4 C-2.59132812 3.2575 -2.05765625 2.515 -1.5078125 1.75 C-1.01023438 1.1725 -0.51265625 0.595 0 0 Z " fill="#CECDCE" transform="translate(225,586)"/>
<path d="M0 0 C0.33 0 0.66 0 1 0 C1.66 3.96 2.32 7.92 3 12 C2.34 12 1.68 12 1 12 C-0.80619523 7.53763531 -1.11658501 4.68965706 0 0 Z " fill="#9B9B9A" transform="translate(798,566)"/>
<path d="M0 0 C0.99 1.32 1.98 2.64 3 4 C2.3125 6.6875 2.3125 6.6875 1 9 C0.01 9.495 0.01 9.495 -1 10 C-0.67 6.7 -0.34 3.4 0 0 Z " fill="#B8B9B9" transform="translate(218,568)"/>
<path d="M0 0 C0.66 0 1.32 0 2 0 C2.33 1.65 2.66 3.3 3 5 C1.68 5.33 0.36 5.66 -1 6 C-0.67 4.02 -0.34 2.04 0 0 Z " fill="#C3C2C2" transform="translate(697,622)"/>
<path d="M0 0 C0.66 0.33 1.32 0.66 2 1 C0.68 3.64 -0.64 6.28 -2 9 C-2.99 7.68 -3.98 6.36 -5 5 C-3.35 3.35 -1.7 1.7 0 0 Z " fill="#C8C8C8" transform="translate(487,80)"/>
<path d="M0 0 C0.33 0.99 0.66 1.98 1 3 C-0.40445835 5.2636564 -2.1967913 7.0208685 -4 9 C-4.66 8.67 -5.32 8.34 -6 8 C-4.02 5.36 -2.04 2.72 0 0 Z " fill="#CBC9CA" transform="translate(735,823)"/>
<path d="M0 0 C-0.66 1.98 -1.32 3.96 -2 6 C-2.66 5.01 -3.32 4.02 -4 3 C-6.05925139 2.27617533 -6.05925139 2.27617533 -8 2 C-2.25 0 -2.25 0 0 0 Z " fill="#C5C4C5" transform="translate(637,757)"/>
<path d="M0 0 C1.42944945 2.35438733 2.08661261 3.48032433 1.625 6.25 C1.41875 6.8275 1.2125 7.405 1 8 C0.67 7.01 0.34 6.02 0 5 C-0.66 5 -1.32 5 -2 5 C-2 4.01 -2 3.02 -2 2 C-1.34 2 -0.68 2 0 2 C0 1.34 0 0.68 0 0 Z " fill="#C9C8C7" transform="translate(623,359)"/>
</svg>
